<svg width="442" height="176" viewBox="0 0 442 176" fill="none" xmlns="http://www.w3.org/2000/svg">
<rect x="14.7998" width="429.25" height="119" rx="20" transform="rotate(6.54336 14.7998 0)" fill="#FC6B00"/>
<path d="M54.8677 89.4861L31.7393 86.8332L26.4708 97.6634L17.0129 96.5785L43.1481 43.5312L53.6393 44.7346L67.0845 102.322L57.5471 101.228L54.8677 89.4861ZM53.1722 81.8028L47.1357 55.101L35.1305 79.7334L53.1722 81.8028ZM93.5482 97.1438L110.04 62.8799L119.657 63.983L97.9435 105.861L87.1343 104.622L75.5464 58.9234L85.2428 60.0356L93.5482 97.1438ZM120.997 86.1199C121.501 81.7221 122.849 77.9309 125.039 74.7465C127.283 71.5681 130.074 69.2309 133.413 67.735C136.811 66.1922 140.417 65.6395 144.232 66.0771C147.676 66.4722 150.591 67.5044 152.976 69.1737C155.421 70.7962 157.296 72.7023 158.601 74.892L159.331 68.5337L168.471 69.5821L163.448 113.375L154.308 112.327L155.055 105.809C153.282 107.699 150.991 109.181 148.184 110.255C145.376 111.329 142.277 111.671 138.886 111.282C135.124 110.851 131.789 109.502 128.882 107.236C125.981 104.917 123.8 101.929 122.341 98.2722C120.941 94.5685 120.493 90.5177 120.997 86.1199ZM156.824 90.3904C157.17 87.3702 156.835 84.6744 155.819 82.3032C154.855 79.938 153.434 78.0571 151.554 76.6604C149.674 75.2638 147.569 74.4318 145.237 74.1643C142.906 73.8969 140.667 74.2306 138.52 75.1653C136.378 76.0471 134.544 77.5277 133.017 79.6073C131.55 81.6399 130.642 84.1663 130.296 87.1865C129.95 90.2067 130.255 92.9259 131.212 95.3441C132.223 97.7684 133.665 99.7053 135.538 101.155C137.471 102.558 139.577 103.39 141.855 103.651C144.187 103.918 146.426 103.585 148.573 102.65C150.72 101.715 152.531 100.205 154.005 98.1195C155.538 95.9869 156.477 93.4106 156.824 90.3904ZM202.549 72.7662C205.993 73.1612 208.984 74.229 211.522 75.9696C214.113 77.7162 216.016 80.0818 217.231 83.0663C218.445 86.0508 218.824 89.5301 218.369 93.504L215.406 119.335L206.425 118.304L209.233 93.825C209.682 89.904 209.045 86.7979 207.322 84.5066C205.605 82.1623 203.05 80.7956 199.659 80.4067C196.268 80.0177 193.444 80.7674 191.188 82.6559C188.99 84.4975 187.667 87.3788 187.217 91.2997L184.409 115.779L175.348 114.74L180.372 70.9471L189.432 71.9864L188.858 76.9935C190.548 75.3622 192.59 74.1738 194.984 73.4284C197.431 72.6891 199.952 72.4684 202.549 72.7662ZM241.709 85.4714L238.929 109.712C238.74 111.355 238.974 112.59 239.631 113.417C240.347 114.197 241.632 114.693 243.487 114.906L249.05 115.544L248.184 123.094L241.031 122.274C236.951 121.806 233.934 120.494 231.981 118.337C230.027 116.18 229.296 112.956 229.789 108.664L232.569 84.4231L227.403 83.8305L228.251 76.439L233.417 77.0315L234.666 66.1429L243.806 67.1913L242.557 78.0799L253.207 79.3015L252.359 86.693L241.709 85.4714ZM256.049 101.611C256.553 97.2128 257.901 93.4217 260.091 90.2372C262.335 87.0589 265.126 84.7217 268.465 83.2258C271.863 81.6829 275.469 81.1303 279.284 81.5679C282.728 81.9629 285.643 82.9951 288.028 84.6645C290.473 86.287 292.348 88.193 293.653 90.3828L294.383 84.0244L303.523 85.0728L298.5 128.866L289.36 127.817L290.107 121.3C288.334 123.19 286.043 124.672 283.236 125.746C280.428 126.82 277.329 127.162 273.938 126.773C270.176 126.342 266.841 124.993 263.934 122.727C261.033 120.408 258.852 117.42 257.393 113.763C255.993 110.059 255.545 106.009 256.049 101.611ZM291.876 105.881C292.222 102.861 291.887 100.165 290.871 97.7939C289.907 95.4287 288.486 93.5478 286.606 92.1512C284.726 90.7545 282.621 89.9225 280.289 89.6551C277.958 89.3877 275.719 89.7214 273.571 90.6561C271.43 91.5378 269.596 93.0185 268.069 95.098C266.602 97.1307 265.694 99.6571 265.348 102.677C265.002 105.697 265.307 108.417 266.264 110.835C267.275 113.259 268.717 115.196 270.59 116.646C272.523 118.048 274.629 118.88 276.907 119.142C279.239 119.409 281.478 119.076 283.625 118.141C285.772 117.206 287.583 115.696 289.057 113.61C290.59 111.478 291.529 108.901 291.876 105.881ZM333.15 87.7464C336.541 88.1354 339.456 89.1676 341.894 90.843C344.391 92.4715 346.266 94.3776 347.519 96.5613L348.248 90.2029L357.388 91.2513L352.283 135.76C351.821 139.786 350.563 143.266 348.509 146.197C346.449 149.182 343.699 151.39 340.261 152.821C336.875 154.257 332.957 154.721 328.506 154.21C322.571 153.529 317.805 151.56 314.206 148.302C310.601 145.097 308.807 141.08 308.824 136.25L317.805 137.28C318.233 139.638 319.48 141.633 321.548 143.266C323.662 144.958 326.282 145.983 329.408 146.342C333.064 146.761 336.133 145.986 338.613 144.016C341.147 142.051 342.657 138.95 343.143 134.711L343.982 127.399C342.208 129.289 339.915 130.798 337.101 131.924C334.347 133.004 331.301 133.353 327.963 132.97C324.148 132.532 320.76 131.177 317.8 128.905C314.898 126.586 312.718 123.598 311.259 119.941C309.858 116.238 309.41 112.187 309.915 107.789C310.419 103.391 311.766 99.6002 313.957 96.4157C316.2 93.2374 318.992 90.9002 322.331 89.4043C325.728 87.8614 329.335 87.3088 333.15 87.7464ZM345.741 112.06C346.088 109.039 345.753 106.344 344.736 103.972C343.773 101.607 342.351 99.7263 340.472 98.3297C338.592 96.933 336.486 96.101 334.155 95.8336C331.823 95.5662 329.584 95.8999 327.437 96.8346C325.296 97.7164 323.462 99.197 321.935 101.277C320.467 103.309 319.56 105.836 319.214 108.856C318.867 111.876 319.173 114.595 320.13 117.013C321.14 119.438 322.582 121.375 324.456 122.824C326.389 124.227 328.494 125.059 330.773 125.32C333.104 125.588 335.343 125.254 337.491 124.319C339.638 123.385 341.448 121.874 342.922 119.789C344.455 117.656 345.395 115.08 345.741 112.06ZM407.037 118.044C406.849 119.686 406.573 121.158 406.209 122.458L372.748 118.62C372.612 122.147 373.588 125.105 375.677 127.491C377.765 129.878 380.504 131.266 383.896 131.655C388.77 132.214 392.448 130.569 394.93 126.72L404.706 127.842C402.919 131.717 400.128 134.752 396.334 136.947C392.598 139.095 388.16 139.875 383.02 139.285C378.835 138.805 375.179 137.446 372.053 135.209C368.987 132.925 366.695 129.977 365.176 126.368C363.717 122.711 363.245 118.63 363.762 114.127C364.279 109.623 365.632 105.779 367.823 102.594C370.072 99.3629 372.946 97.0083 376.444 95.5306C379.994 94.059 383.916 93.5694 388.208 94.0617C392.341 94.5357 395.92 95.8589 398.945 98.0311C401.971 100.203 404.196 103.035 405.621 106.527C407.051 109.966 407.524 113.805 407.037 118.044ZM397.908 114.098C398.238 110.753 397.352 107.941 395.252 105.66C393.151 103.379 390.379 102.041 386.935 101.646C383.809 101.287 381.018 101.987 378.561 103.745C376.111 105.451 374.479 107.975 373.667 111.317L397.908 114.098Z" fill="white"/>
</svg>
