<svg width="378" height="307" viewBox="0 0 378 307" fill="none" xmlns="http://www.w3.org/2000/svg">
<g filter="url(#filter0_d_177_4119)">
<g filter="url(#filter1_d_177_4119)">
<g clip-path="url(#clip0_177_4119)">
<rect x="4" y="118.648" width="321.106" height="193.787" rx="12" transform="rotate(-21.6847 4 118.648)" fill="#A9FF72"/>
<circle cx="485.81" cy="153.055" r="186" transform="rotate(-21.6847 485.81 153.055)" fill="white" fill-opacity="0.06"/>
</g>
</g>
<path d="M148.155 187.791C146.462 188.437 144.978 188.783 143.702 188.83C141.606 188.895 139.889 188.421 138.549 187.408C137.209 186.396 136.08 184.686 135.16 182.284L132.804 176.132C131.589 172.959 131.482 170.237 132.479 167.964C133.477 165.693 135.262 164.066 137.834 163.084C139.871 162.306 142.169 162.018 144.725 162.216L144.833 165.315C142.776 165.293 141.043 165.549 139.631 166.088C137.845 166.77 136.61 167.839 135.926 169.294C135.244 170.747 135.294 172.501 136.079 174.552L138.748 181.521C139.472 183.412 140.599 184.551 142.131 184.939C143.664 185.328 145.369 185.162 147.251 184.443C148.724 183.881 150.149 183.099 151.526 182.096L153.504 184.867C151.755 186.12 149.974 187.097 148.155 187.791Z" fill="black"/>
<path d="M166.081 180.996C162.79 182.253 159.932 182.628 157.51 182.119C155.088 181.613 153.252 179.723 152.001 176.456L150.473 172.467C149.258 169.294 149.524 166.752 151.27 164.836C152.109 163.93 153.279 163.187 154.784 162.612C156.164 162.086 157.641 161.769 159.217 161.664C160.793 161.559 162.164 161.668 163.331 161.994C162.068 158.695 159.226 157.888 154.806 159.575L154.066 156.937C157.075 155.788 159.48 155.43 161.281 155.863C163.081 156.296 164.404 157.123 165.248 158.342C166.093 159.562 166.92 161.229 167.73 163.344L173.214 177.666C169.964 179.311 167.585 180.422 166.081 180.996ZM160.346 165.034C158.864 165.103 157.574 165.348 156.477 165.767C153.749 166.808 152.915 168.706 153.97 171.462L155.405 175.211C156.804 178.864 159.948 179.756 164.839 177.889C165.81 177.518 167.1 176.896 168.708 176.026L164.53 165.115C163.225 164.989 161.83 164.962 160.348 165.031L160.346 165.034Z" fill="black"/>
<path d="M178.877 171.507C180.163 171.769 181.512 171.631 182.922 171.093C184.208 170.602 185.223 169.856 185.972 168.853C186.72 167.852 186.854 166.725 186.376 165.477C186.045 164.612 185.526 163.984 184.819 163.593C184.112 163.201 183.327 162.978 182.461 162.923C181.595 162.868 180.434 162.861 178.977 162.904C177.232 162.947 175.813 162.928 174.723 162.848C173.631 162.768 172.575 162.446 171.551 161.882C170.527 161.318 169.684 160.41 169.025 159.156L168.757 158.597C168.352 157.539 168.246 156.396 168.44 155.164C168.634 153.933 169.211 152.768 170.172 151.665C171.134 150.564 172.524 149.666 174.342 148.972C175.345 148.589 176.27 148.356 177.119 148.27C177.967 148.186 178.652 148.171 179.178 148.227C179.701 148.284 180.024 148.328 180.143 148.355L180.222 151.796C180.103 151.769 179.842 151.72 179.44 151.655C179.037 151.588 178.488 151.587 177.794 151.65C177.099 151.713 176.361 151.894 175.577 152.193C174.103 152.755 173.072 153.535 172.484 154.531C171.896 155.527 171.884 156.577 172.452 157.683C172.878 158.511 173.601 159.017 174.621 159.197C175.641 159.377 177.116 159.447 179.041 159.411C180.923 159.353 182.491 159.388 183.744 159.517C184.997 159.643 186.178 160.056 187.289 160.752C188.399 161.449 189.256 162.583 189.857 164.152C190.618 166.139 190.547 168.065 189.646 169.934C188.745 171.801 186.914 173.263 184.156 174.316C182.368 174.998 180.706 175.275 179.165 175.146C177.624 175.018 176.321 174.57 175.254 173.802C174.187 173.035 173.384 172.038 172.842 170.812L176.08 169.411C176.659 170.55 177.592 171.249 178.878 171.511L178.877 171.507Z" fill="black"/>
<path d="M203.202 147.919C202.477 146.028 201.454 144.858 200.132 144.407C198.809 143.957 197.365 144.03 195.798 144.629C194.888 144.976 194.013 145.458 193.17 146.072C192.328 146.688 191.641 147.336 191.112 148.016L198.731 167.915L195.346 169.207L182.463 135.562L185.848 134.27L189.879 144.796C190.378 144.127 191.074 143.485 191.971 142.867C192.867 142.25 193.847 141.737 194.912 141.33C196.7 140.648 198.283 140.373 199.664 140.508C201.138 140.606 202.45 141.096 203.597 141.981C204.744 142.866 205.656 144.189 206.33 145.951L212.698 162.581L209.313 163.874L203.203 147.917L203.202 147.919Z" fill="black"/>
<path d="M204.881 126.998L208.272 125.703L221.156 159.352L217.765 160.647L204.881 126.998Z" fill="black"/>
<path d="M237.038 153.283C235.743 154.218 234.374 154.961 232.934 155.511C230.613 156.397 228.547 156.515 226.738 155.867C224.926 155.219 223.573 153.723 222.677 151.385L218.904 141.531C217.91 138.935 217.929 136.615 218.96 134.569C219.991 132.523 221.807 131.004 224.41 130.01C227.013 129.016 229.316 128.956 231.318 129.825C233.323 130.695 234.809 132.394 235.779 134.926L238.3 141.511L225.034 147.401L225.991 149.9C226.506 151.246 227.299 152.101 228.372 152.463C229.445 152.825 230.687 152.736 232.098 152.198C234.135 151.42 236.069 149.948 237.898 147.781L240.254 150.132C239.407 151.3 238.336 152.351 237.043 153.285L237.038 153.283ZM229.327 133.007C228.017 132.681 226.766 132.745 225.574 133.2C224.006 133.799 222.91 134.713 222.286 135.942C221.661 137.172 221.668 138.621 222.306 140.287L223.778 144.132L233.687 139.745L232.27 136.044C231.62 134.346 230.639 133.335 229.328 133.009L229.327 133.007Z" fill="black"/>
<path d="M247.875 145.146C249.161 145.409 250.51 145.27 251.921 144.732C253.206 144.241 254.222 143.495 254.971 142.492C255.718 141.491 255.853 140.364 255.375 139.116C255.044 138.251 254.525 137.623 253.818 137.232C253.111 136.84 252.325 136.618 251.459 136.562C250.593 136.507 249.433 136.501 247.975 136.544C246.23 136.586 244.812 136.567 243.722 136.487C242.63 136.407 241.574 136.086 240.55 135.521C239.526 134.957 238.683 134.05 238.023 132.795L237.756 132.236C237.351 131.179 237.245 130.035 237.439 128.804C237.632 127.572 238.209 126.408 239.171 125.304C240.133 124.203 241.523 123.305 243.341 122.611C244.343 122.228 245.269 121.995 246.118 121.909C246.965 121.825 247.651 121.81 248.176 121.867C248.7 121.923 249.023 121.967 249.142 121.994L249.22 125.436C249.102 125.408 248.841 125.359 248.439 125.294C248.035 125.227 247.487 125.226 246.793 125.289C246.098 125.352 245.359 125.533 244.576 125.832C243.101 126.395 242.071 127.174 241.483 128.17C240.895 129.166 240.883 130.216 241.451 131.322C241.876 132.151 242.599 132.656 243.62 132.836C244.64 133.016 246.115 133.086 248.04 133.05C249.922 132.992 251.49 133.027 252.743 133.156C253.996 133.283 255.176 133.695 256.288 134.391C257.397 135.088 258.255 136.222 258.856 137.791C259.617 139.778 259.546 141.705 258.645 143.573C257.744 145.441 255.913 146.902 253.155 147.955C251.367 148.637 249.705 148.914 248.163 148.785C246.623 148.658 245.32 148.209 244.253 147.442C243.186 146.674 242.382 145.677 241.841 144.451L245.079 143.05C245.658 144.189 246.59 144.888 247.877 145.15L247.875 145.146Z" fill="black"/>
<path d="M266.722 137.946C268.009 138.208 269.358 138.07 270.768 137.531C272.054 137.04 273.069 136.295 273.818 135.292C274.565 134.291 274.7 133.164 274.222 131.915C273.891 131.051 273.372 130.423 272.665 130.031C271.958 129.64 271.173 129.417 270.307 129.362C269.441 129.307 268.28 129.3 266.823 129.343C265.078 129.386 263.659 129.367 262.569 129.287C261.477 129.207 260.421 128.885 259.397 128.321C258.373 127.756 257.53 126.849 256.871 125.595L256.603 125.036C256.198 123.978 256.092 122.835 256.286 121.603C256.48 120.372 257.056 119.207 258.018 118.104C258.98 117.002 260.37 116.105 262.188 115.411C263.19 115.028 264.116 114.794 264.965 114.708C265.813 114.624 266.498 114.61 267.024 114.666C267.547 114.723 267.87 114.766 267.989 114.794L268.068 118.235C267.949 118.207 267.688 118.159 267.286 118.093C266.882 118.026 266.334 118.026 265.64 118.089C264.945 118.151 264.206 118.332 263.423 118.631C261.949 119.194 260.918 119.973 260.33 120.97C259.742 121.966 259.73 123.016 260.298 124.122C260.724 124.95 261.447 125.455 262.467 125.635C263.487 125.815 264.962 125.886 266.887 125.849C268.769 125.792 270.337 125.827 271.59 125.955C272.843 126.082 274.023 126.495 275.135 127.191C276.245 127.887 277.102 129.021 277.703 130.59C278.464 132.578 278.393 134.504 277.492 136.373C276.591 138.242 274.76 139.701 272.002 140.754C270.214 141.437 268.552 141.714 267.011 141.585C265.47 141.457 264.167 141.008 263.1 140.241C262.033 139.474 261.23 138.477 260.688 137.25L263.926 135.85C264.505 136.989 265.438 137.687 266.724 137.949L266.722 137.946Z" fill="black"/>
<g clip-path="url(#clip1_177_4119)">
<path d="M272.311 46.5968C272.761 46.8427 273.165 47.1923 273.492 47.5722C273.819 47.952 274.1 48.4355 274.304 48.9493C274.508 49.4631 274.637 50.0072 274.66 50.5081C274.682 51.0091 274.629 51.5403 274.471 52.0283C274.294 52.6935 274.662 53.3972 275.341 53.5523C276.02 53.7074 276.752 53.3314 276.928 52.6662C277.151 51.8974 277.222 51.1892 277.235 50.3341C277.248 49.479 277.032 48.7148 276.74 47.9808C276.448 47.2468 276.004 46.5733 275.484 45.9301C274.993 45.3603 274.349 44.8511 273.659 44.4455C273.074 44.083 272.284 44.3123 271.897 44.8912C271.51 45.47 271.726 46.2343 272.311 46.5968Z" fill="black"/>
<path d="M275.651 42.8035C277.119 43.8349 278.323 45.3112 279.023 47.0728C279.724 48.8343 279.862 50.7344 279.504 52.4922C279.327 53.1573 279.847 53.8005 280.526 53.9556C281.281 54.0805 281.879 53.5879 282.055 52.9228C282.496 50.7072 282.364 48.3796 281.459 46.1042C280.584 43.9022 279.052 42.046 277.21 40.7385C276.625 40.376 275.776 40.4585 275.389 41.0373C275.003 41.6162 275.037 42.3676 275.651 42.8035Z" fill="black"/>
<path d="M279.19 38.846C281.301 40.3866 282.95 42.5364 283.971 45.1054C284.993 47.6744 285.195 50.3992 284.794 52.9387C284.723 53.6469 285.138 54.247 285.893 54.3719C286.618 54.4233 287.245 54.0041 287.392 53.2656C287.951 50.238 287.68 47.1159 286.483 44.1066C285.286 41.0972 283.34 38.6409 280.854 36.8241C280.317 36.358 279.497 36.5139 279.005 37.0496C278.542 37.6587 278.652 38.3799 279.19 38.846Z" fill="black"/>
<path d="M282.729 34.8885C285.408 36.9687 287.652 39.7314 288.995 43.1077C290.337 46.4841 290.679 50.0035 290.084 53.3852C290.013 54.0934 290.428 54.6935 291.183 54.8183C291.909 54.8698 292.536 54.4506 292.683 53.7121C293.284 49.9029 292.948 45.956 291.431 42.1392C289.913 38.3224 287.446 35.223 284.394 32.8666C283.856 32.4005 283.036 32.5564 282.544 33.0921C282.052 33.6278 282.191 34.4224 282.729 34.8885Z" fill="black"/>
</g>
</g>
<defs>
<filter id="filter0_d_177_4119" x="0" y="0" width="377.986" height="306.721" filterUnits="userSpaceOnUse" color-interpolation-filters="sRGB">
<feFlood flood-opacity="0" result="BackgroundImageFix"/>
<feColorMatrix in="SourceAlpha" type="matrix" values="0 0 0 0 0 0 0 0 0 0 0 0 0 0 0 0 0 0 127 0" result="hardAlpha"/>
<feOffset dy="4"/>
<feGaussianBlur stdDeviation="2"/>
<feComposite in2="hardAlpha" operator="out"/>
<feColorMatrix type="matrix" values="0 0 0 0 0 0 0 0 0 0 0 0 0 0 0 0 0 0 0.04 0"/>
<feBlend mode="normal" in2="BackgroundImageFix" result="effect1_dropShadow_177_4119"/>
<feBlend mode="normal" in="SourceGraphic" in2="effect1_dropShadow_177_4119" result="shape"/>
</filter>
<filter id="filter1_d_177_4119" x="0" y="0" width="377.986" height="306.721" filterUnits="userSpaceOnUse" color-interpolation-filters="sRGB">
<feFlood flood-opacity="0" result="BackgroundImageFix"/>
<feColorMatrix in="SourceAlpha" type="matrix" values="0 0 0 0 0 0 0 0 0 0 0 0 0 0 0 0 0 0 127 0" result="hardAlpha"/>
<feOffset dy="4"/>
<feGaussianBlur stdDeviation="2"/>
<feComposite in2="hardAlpha" operator="out"/>
<feColorMatrix type="matrix" values="0 0 0 0 0.4375 0 0 0 0 0.4375 0 0 0 0 0.4375 0 0 0 0.25 0"/>
<feBlend mode="normal" in2="BackgroundImageFix" result="effect1_dropShadow_177_4119"/>
<feBlend mode="normal" in="SourceGraphic" in2="effect1_dropShadow_177_4119" result="shape"/>
</filter>
<clipPath id="clip0_177_4119">
<rect x="4" y="118.648" width="321.106" height="193.787" rx="12" transform="rotate(-21.6847 4 118.648)" fill="white"/>
</clipPath>
<clipPath id="clip1_177_4119">
<rect x="265.45" y="38.8687" width="26.2128" height="25.2766" rx="12.6383" transform="rotate(-21.6847 265.45 38.8687)" fill="white"/>
</clipPath>
</defs>
</svg>
