<svg width="197" height="160" viewBox="0 0 197 160" fill="none" xmlns="http://www.w3.org/2000/svg">
<g filter="url(#filter0_d_177_4588)">
<g clip-path="url(#clip0_177_4588)">
<rect x="2" y="58.1755" width="166" height="100.181" rx="8" transform="rotate(-20.5151 2 58.1755)" fill="#A7F673"/>
<circle cx="337.881" cy="96.9221" r="186" transform="rotate(-20.5151 337.881 96.9221)" fill="white" fill-opacity="0.1"/>
</g>
<rect x="2.00644" y="58.1785" width="165.99" height="100.171" rx="7.995" transform="rotate(-20.5151 2.00644 58.1785)" stroke="white" stroke-width="0.01"/>
</g>
<path d="M62.789 100.067C61.7405 100.443 60.8243 100.637 60.0398 100.649C58.7517 100.663 57.7026 100.351 56.8925 99.7113C56.0817 99.0732 55.4093 98.0085 54.8743 96.5209L53.5043 92.712C52.7978 90.7479 52.7659 89.0742 53.4071 87.6905C54.0487 86.3077 55.1658 85.3303 56.7578 84.7595C58.0191 84.3073 59.4343 84.1586 61.002 84.3128L61.0299 86.2175C59.7662 86.1782 58.6985 86.3142 57.8243 86.6277C56.7184 87.0242 55.9465 87.6654 55.5081 88.5503C55.0706 89.4349 55.0793 90.5125 55.5361 91.7825L57.0881 96.0973C57.5092 97.2681 58.1875 97.9823 59.1238 98.2395C60.0606 98.4977 61.1102 98.4172 62.2755 97.9994C63.1873 97.6725 64.0728 97.21 64.9314 96.6108L66.1114 98.3378C65.0214 99.0861 63.9146 99.6635 62.789 100.067Z" fill="#A7F673"/>
<path d="M73.8862 96.1179C71.8489 96.8484 70.0882 97.0433 68.607 96.7004C67.1251 96.3589 66.0208 95.1749 65.2933 93.1521L64.4049 90.6821C63.6984 88.718 63.8934 87.1596 64.9901 86.0044C65.5167 85.458 66.2452 85.0163 67.1768 84.6823C68.0311 84.376 68.9424 84.2 69.912 84.1551C70.8816 84.1102 71.7224 84.1949 72.4356 84.4098C71.7008 82.3668 69.9651 81.8353 67.2288 82.8164L66.8069 81.1867C68.67 80.5187 70.1519 80.3289 71.2526 80.6174C72.3533 80.9059 73.1556 81.4305 73.6591 82.1902C74.1626 82.9499 74.65 83.9849 75.1209 85.2943L78.3103 94.1616C76.2931 95.1316 74.8178 95.7839 73.8862 96.1179ZM70.5634 86.2395C69.6522 86.2635 68.8567 86.3979 68.1776 86.6414C66.4887 87.2469 65.9521 88.4024 66.5657 90.1084L67.4006 92.4297C68.2141 94.6913 70.1343 95.2789 73.1626 94.1931C73.7635 93.9777 74.5641 93.6118 75.5626 93.0973L73.1328 86.3419C72.3325 86.2484 71.4762 86.2138 70.565 86.2378L70.5634 86.2395Z" fill="#A7F673"/>
<path d="M81.8667 90.4488C82.6536 90.6259 83.4841 90.5578 84.3572 90.2447C85.1532 89.9593 85.7866 89.514 86.259 88.9071C86.7308 88.3015 86.8278 87.611 86.5497 86.8379C86.3572 86.3026 86.0462 85.9103 85.6168 85.661C85.1873 85.4117 84.7076 85.265 84.1762 85.2202C83.6449 85.1753 82.9318 85.1568 82.0361 85.1649C80.9636 85.1691 80.0924 85.1398 79.4238 85.0768C78.7541 85.0142 78.1093 84.8033 77.4871 84.4437C76.8649 84.0842 76.3588 83.5162 75.9692 82.7374L75.812 82.3905C75.5765 81.7358 75.5257 81.032 75.6601 80.2778C75.7946 79.5236 76.1635 78.8155 76.768 78.1499C77.3727 77.4852 78.2379 76.9511 79.3636 76.5475C79.9843 76.3249 80.5561 76.1931 81.0785 76.1508C81.6003 76.11 82.0215 76.1097 82.3436 76.1508C82.6648 76.1921 82.8625 76.2229 82.9351 76.2414L82.9403 78.3565C82.8677 78.3379 82.7082 78.3049 82.4617 78.2596C82.2148 78.2133 81.8781 78.2061 81.4507 78.236C81.0233 78.2658 80.567 78.3677 80.0819 78.5416C79.1692 78.8689 78.5264 79.3347 78.1526 79.9394C77.7789 80.544 77.7582 81.1889 78.0934 81.8753C78.3443 82.3896 78.7822 82.709 79.4067 82.8324C80.0311 82.9558 80.9363 83.0174 82.1194 83.0193C83.2765 83.0077 84.2391 83.0488 85.0074 83.1434C85.7754 83.2371 86.4956 83.5055 87.1697 83.947C87.8427 84.3888 88.3553 85.0961 88.7047 86.0676C89.1473 87.298 89.0798 88.4806 88.5028 89.6174C87.9256 90.7532 86.7827 91.6279 85.075 92.2402C83.9682 92.637 82.9433 92.7863 81.998 92.6876C81.0531 92.59 80.2585 92.298 79.6125 91.8133C78.9665 91.3287 78.4855 90.706 78.1685 89.9457L80.1749 89.1258C80.5163 89.8328 81.0806 90.2737 81.8674 90.4508L81.8667 90.4488Z" fill="#A7F673"/>
<path d="M97.1061 76.2628C96.685 75.092 96.0709 74.3605 95.2644 74.067C94.457 73.7738 93.5692 73.8008 92.5989 74.1487C92.0355 74.3507 91.492 74.6358 90.9666 75.0024C90.4415 75.3701 90.0115 75.7596 89.6776 76.1706L94.1091 88.4911L92.013 89.2427L84.5205 68.4116L86.6166 67.6601L88.9606 74.1771C89.2757 73.7728 89.7114 73.3869 90.2698 73.0188C90.8282 72.6506 91.4369 72.3478 92.0963 72.1114C93.2033 71.7145 94.1792 71.5657 95.0255 71.6655C95.9303 71.7444 96.7297 72.0621 97.4233 72.62C98.117 73.1779 98.6604 74.0021 99.0528 75.093L102.756 85.3896L100.66 86.1411L97.1067 76.2614L97.1061 76.2628Z" fill="#A7F673"/>
<path d="M98.4004 63.4312L100.5 62.6783L107.993 83.5117L105.893 84.2646L98.4004 63.4312Z" fill="#A7F673"/>
<path d="M117.826 79.9824C117.018 80.5403 116.168 80.9799 115.276 81.2997C113.84 81.8148 112.569 81.8614 111.465 81.4403C110.361 81.0196 109.548 80.084 109.027 78.636L106.833 72.5352C106.255 70.9282 106.296 69.5028 106.955 68.2589C107.614 67.015 108.748 66.1045 110.36 65.5266C111.972 64.9487 113.387 64.9405 114.606 65.4995C115.827 66.0592 116.719 67.1218 117.282 68.6892L118.749 72.7662L110.525 76.2186L111.082 77.7658C111.381 78.5986 111.857 79.1338 112.512 79.3697C113.167 79.6055 113.931 79.5669 114.804 79.2539C116.066 78.8017 117.272 77.9212 118.423 76.6128L119.841 78.0866C119.306 78.7936 118.635 79.4261 117.829 79.9837L117.826 79.9824ZM113.343 67.4295C112.542 67.2129 111.773 67.2363 111.035 67.5007C110.064 67.8489 109.379 68.3971 108.981 69.1444C108.581 69.8919 108.567 70.7823 108.938 71.8134L109.795 74.1944L115.937 71.6232L115.113 69.3322C114.735 68.2809 114.145 67.6471 113.344 67.4305L113.343 67.4295Z" fill="#A7F673"/>
<path d="M124.585 75.1199C125.372 75.297 126.203 75.2289 127.076 74.9158C127.872 74.6304 128.505 74.1852 128.978 73.5782C129.45 72.9727 129.547 72.2822 129.268 71.5091C129.076 70.9738 128.765 70.5815 128.336 70.3322C127.906 70.0829 127.426 69.9361 126.895 69.8913C126.364 69.8465 125.651 69.828 124.755 69.8361C123.682 69.8402 122.811 69.811 122.143 69.748C121.473 69.6853 120.828 69.4744 120.206 69.1149C119.584 68.7553 119.078 68.1874 118.688 67.4086L118.531 67.0617C118.295 66.407 118.244 65.7032 118.379 64.949C118.513 64.1948 118.882 63.4867 119.487 62.821C120.091 62.1564 120.957 61.6222 122.082 61.2186C122.703 60.9961 123.275 60.8642 123.797 60.822C124.319 60.7811 124.74 60.7809 125.062 60.8219C125.384 60.8633 125.581 60.8941 125.654 60.9126L125.659 63.0276C125.586 63.0091 125.427 62.976 125.18 62.9307C124.934 62.8844 124.597 62.8772 124.169 62.9071C123.742 62.937 123.286 63.0388 122.801 63.2128C121.888 63.54 121.245 64.0058 120.871 64.6105C120.498 65.2152 120.477 65.8601 120.812 66.5464C121.063 67.0608 121.501 67.3802 122.125 67.5036C122.75 67.627 123.655 67.6886 124.838 67.6905C125.995 67.6789 126.958 67.7199 127.726 67.8146C128.494 67.9082 129.214 68.1766 129.888 68.6181C130.561 69.06 131.074 69.7673 131.423 70.7387C131.866 71.9692 131.799 73.1518 131.222 74.2886C130.644 75.4243 129.501 76.299 127.794 76.9113C126.687 77.3082 125.662 77.4574 124.717 77.3588C123.772 77.2612 122.977 76.9692 122.331 76.4845C121.685 75.9998 121.204 75.3772 120.887 74.6169L122.894 73.797C123.235 74.5039 123.799 74.9448 124.586 75.1219L124.585 75.1199Z" fill="#A7F673"/>
<path d="M136.254 70.9329C137.041 71.11 137.872 71.0419 138.745 70.7288C139.541 70.4434 140.174 69.9981 140.646 69.3912C141.118 68.7857 141.215 68.0951 140.937 67.322C140.745 66.7867 140.434 66.3944 140.004 66.1451C139.575 65.8958 139.095 65.7491 138.564 65.7043C138.032 65.6595 137.319 65.6409 136.424 65.6491C135.351 65.6532 134.48 65.624 133.811 65.561C133.142 65.4983 132.497 65.2874 131.875 64.9279C131.252 64.5683 130.746 64.0003 130.357 63.2216L130.199 62.8746C129.964 62.2199 129.913 61.5162 130.048 60.762C130.182 60.0077 130.551 59.2997 131.155 58.634C131.76 57.9693 132.625 57.4352 133.751 57.0316C134.372 56.8091 134.944 56.6772 135.466 56.635C135.988 56.5941 136.409 56.5939 136.731 56.6349C137.052 56.6763 137.25 56.7071 137.323 56.7256L137.328 58.8406C137.255 58.8221 137.096 58.789 136.849 58.7437C136.602 58.6974 136.266 58.6902 135.838 58.7201C135.411 58.7499 134.954 58.8518 134.469 59.0258C133.557 59.353 132.914 59.8188 132.54 60.4235C132.166 61.0282 132.146 61.673 132.481 62.3594C132.732 62.8738 133.17 63.1932 133.794 63.3166C134.419 63.44 135.324 63.5016 136.507 63.5035C137.664 63.4919 138.627 63.5329 139.395 63.6276C140.163 63.7212 140.883 63.9896 141.557 64.4311C142.23 64.873 142.743 65.5802 143.092 66.5517C143.535 67.7822 143.467 68.9648 142.89 70.1015C142.313 71.2383 141.17 72.112 139.462 72.7243C138.356 73.1211 137.331 73.2704 136.385 73.1718C135.441 73.0742 134.646 72.7821 134 72.2975C133.354 71.8128 132.873 71.1901 132.556 70.4299L134.562 69.61C134.904 70.3169 135.468 70.7578 136.255 70.9349L136.254 70.9329Z" fill="#A7F673"/>
<g clip-path="url(#clip1_177_4588)">
<path d="M141.438 23.7667C141.668 23.8986 141.873 24.0836 142.038 24.2833C142.203 24.4831 142.343 24.736 142.443 25.0037C142.544 25.2714 142.604 25.554 142.611 25.8131C142.617 26.0723 142.584 26.3463 142.497 26.5969C142.399 26.9388 142.582 27.3064 142.931 27.3937C143.28 27.4811 143.662 27.2944 143.76 26.9525C143.884 26.5575 143.928 26.1922 143.944 25.7504C143.959 25.3085 143.856 24.9113 143.713 24.5288C143.57 24.1464 143.347 23.7936 143.085 23.4557C142.837 23.156 142.51 22.886 142.158 22.6691C141.859 22.4756 141.448 22.5857 141.242 22.8808C141.036 23.1759 141.14 23.5732 141.438 23.7667Z" fill="black"/>
<path d="M143.204 21.8414C143.952 22.39 144.559 23.1657 144.902 24.0836C145.246 25.0015 145.297 25.985 145.093 26.8897C144.995 27.2316 145.257 27.5696 145.607 27.6569C145.995 27.7294 146.309 27.4811 146.408 27.1392C146.659 25.9987 146.615 24.7943 146.172 23.6087C145.742 22.4613 144.97 21.4858 144.032 20.7905C143.734 20.597 143.294 20.6307 143.088 20.9258C142.882 21.2209 142.892 21.6096 143.204 21.8414Z" fill="black"/>
<path d="M145.075 19.8333C146.15 20.6519 146.98 21.7804 147.48 23.1189C147.981 24.4575 148.057 25.868 147.823 27.1763C147.779 27.5416 147.987 27.8562 148.376 27.9287C148.75 27.9629 149.079 27.7528 149.163 27.3727C149.484 25.8138 149.376 24.1972 148.789 22.6292C148.203 21.0612 147.222 19.7711 145.957 18.8058C145.684 18.5593 145.259 18.6312 144.999 18.9029C144.753 19.2128 144.802 19.5867 145.075 19.8333Z" fill="black"/>
<path d="M146.946 17.8252C148.309 18.9286 149.44 20.3802 150.098 22.1395C150.756 23.8987 150.896 25.7213 150.553 27.4629C150.509 27.8282 150.717 28.1427 151.106 28.2152C151.48 28.2495 151.808 28.0394 151.892 27.6593C152.243 25.6968 152.111 23.6533 151.367 21.6646C150.623 19.6758 149.381 18.0479 147.828 16.7977C147.555 16.5512 147.13 16.6231 146.87 16.8948C146.61 17.1665 146.673 17.5786 146.946 17.8252Z" fill="black"/>
</g>
<defs>
<filter id="filter0_d_177_4588" x="-2" y="0" width="198.581" height="160.003" filterUnits="userSpaceOnUse" color-interpolation-filters="sRGB">
<feFlood flood-opacity="0" result="BackgroundImageFix"/>
<feColorMatrix in="SourceAlpha" type="matrix" values="0 0 0 0 0 0 0 0 0 0 0 0 0 0 0 0 0 0 127 0" result="hardAlpha"/>
<feOffset dy="4"/>
<feGaussianBlur stdDeviation="2"/>
<feComposite in2="hardAlpha" operator="out"/>
<feColorMatrix type="matrix" values="0 0 0 0 0.4375 0 0 0 0 0.4375 0 0 0 0 0.4375 0 0 0 0.25 0"/>
<feBlend mode="normal" in2="BackgroundImageFix" result="effect1_dropShadow_177_4588"/>
<feBlend mode="normal" in="SourceGraphic" in2="effect1_dropShadow_177_4588" result="shape"/>
</filter>
<clipPath id="clip0_177_4588">
<rect x="2" y="58.1755" width="166" height="100.181" rx="8" transform="rotate(-20.5151 2 58.1755)" fill="white"/>
</clipPath>
<clipPath id="clip1_177_4588">
<rect x="137.973" y="19.7" width="13.551" height="13.0671" rx="6.53353" transform="rotate(-20.5151 137.973 19.7)" fill="white"/>
</clipPath>
</defs>
</svg>
