<svg width="372" height="167" viewBox="0 0 372 167" fill="none" xmlns="http://www.w3.org/2000/svg">
<rect x="3.02197" y="54.5614" width="351.332" height="119" rx="20" transform="rotate(-8.72964 3.02197 54.5614)" fill="#FFC901"/>
<path d="M36.4181 115.294C35.8161 111.373 36.0725 107.816 37.1875 104.623C38.3416 101.377 40.2015 98.7311 42.7673 96.6847C45.3331 94.6382 48.4379 93.3352 52.0819 92.7757C56.6945 92.0674 60.6699 92.5901 64.0081 94.3438C67.3853 96.0443 69.916 98.8426 71.6001 102.739L63.0899 104.046C62.1076 102.261 60.7739 100.955 59.0889 100.127C57.4038 99.3002 55.4081 99.0637 53.1018 99.4178C49.873 99.9136 47.467 101.463 45.8838 104.067C44.3397 106.618 43.8828 109.946 44.5132 114.051C45.1436 118.156 46.5814 121.217 48.8267 123.233C51.1181 125.241 53.8783 125.998 57.1071 125.502C61.6736 124.801 64.3867 122.331 65.2466 118.091L73.7568 116.784C73.2447 120.829 71.6436 124.238 68.9534 127.012C66.2562 129.739 62.6473 131.45 58.127 132.144C54.483 132.704 51.1303 132.392 48.0687 131.21C45 129.982 42.4318 128.015 40.3641 125.311C38.3355 122.554 37.0201 119.215 36.4181 115.294ZM77.8833 108.785C77.2954 104.957 77.559 101.446 78.674 98.2532C79.8351 95.0532 81.6524 92.4371 84.1259 90.4048C86.6385 88.3193 89.5554 87.0216 92.8764 86.5116C95.8746 86.0513 98.5728 86.2507 100.971 87.11C103.408 87.9161 105.43 89.0929 107.037 90.6403L106.187 85.1052L114.144 83.8834L119.998 122.007L112.041 123.228L111.17 117.555C110.108 119.559 108.517 121.338 106.394 122.891C104.272 124.445 101.735 125.448 98.7832 125.901C95.5082 126.404 92.3825 126.034 89.4061 124.792C86.4226 123.503 83.8935 121.483 81.8187 118.733C79.7829 115.93 78.4711 112.614 77.8833 108.785ZM109.109 104.132C108.705 101.503 107.801 99.3047 106.396 97.5374C105.038 95.763 103.405 94.503 101.496 93.7574C99.5874 93.0117 97.6183 92.7947 95.5888 93.1064C93.5592 93.418 91.746 94.2158 90.149 95.4997C88.5449 96.7375 87.3381 98.41 86.5286 100.517C85.7581 102.571 85.5747 104.913 85.9784 107.542C86.3821 110.171 87.2667 112.396 88.6321 114.217C90.0437 116.03 91.7074 117.333 93.6231 118.125C95.5778 118.863 97.5469 119.08 99.5303 118.776C101.56 118.464 103.373 117.666 104.97 116.382C106.567 115.098 107.747 113.406 108.511 111.306C109.313 109.153 109.513 106.761 109.109 104.132ZM144.291 118.914C141.293 119.374 138.513 119.258 135.952 118.565C133.429 117.82 131.335 116.63 129.667 114.998C127.993 113.319 126.933 111.334 126.487 109.042L134.651 107.788C135.037 109.381 136.007 110.625 137.561 111.519C139.154 112.361 141.011 112.619 143.133 112.293C145.347 111.953 146.99 111.276 148.062 110.261C149.172 109.194 149.625 107.991 149.42 106.653C149.2 105.223 148.345 104.269 146.855 103.789C145.412 103.303 143.15 102.871 140.07 102.494C137.09 102.149 134.644 101.746 132.732 101.284C130.819 100.822 129.078 99.9328 127.506 98.616C125.981 97.2922 125.027 95.3849 124.645 92.8941C124.333 90.8645 124.649 88.9274 125.594 87.0827C126.531 85.1919 128.032 83.5922 130.097 82.2836C132.209 80.9679 134.717 80.0869 137.623 79.6407C141.959 78.9749 145.612 79.5472 148.581 81.3575C151.589 83.1147 153.476 85.8702 154.241 89.6242L146.354 90.8354C145.953 89.15 145.052 87.8955 143.651 87.072C142.25 86.2484 140.488 85.9995 138.367 86.3254C136.291 86.6441 134.76 87.2805 133.773 88.2346C132.786 89.1888 132.392 90.3116 132.591 91.6031C132.746 92.6179 133.247 93.4146 134.091 93.9931C134.935 94.5717 135.919 94.9871 137.044 95.2393C138.162 95.4454 139.804 95.6889 141.972 95.9699C144.853 96.2829 147.23 96.6969 149.103 97.2119C151.015 97.6737 152.731 98.5435 154.249 99.8212C155.767 101.099 156.737 102.957 157.158 105.394C157.491 107.562 157.189 109.591 156.252 111.482C155.315 113.373 153.813 114.973 151.748 116.281C149.729 117.583 147.243 118.46 144.291 118.914ZM181.087 72.9669C183.993 72.5207 186.671 72.7467 189.123 73.6451C191.62 74.5364 193.702 76.1052 195.369 78.3515C197.082 80.5908 198.204 83.4402 198.736 86.8997L202.188 109.386L194.37 110.587L191.098 89.2764C190.574 85.8631 189.32 83.388 187.337 81.8511C185.347 80.2681 182.876 79.7033 179.924 80.1566C176.972 80.6099 174.761 81.8936 173.292 84.0078C171.862 86.0688 171.408 88.8059 171.933 92.2192L175.205 113.529L167.317 114.741L159.455 63.5407L167.343 62.3296L170.031 79.8344C171.121 78.0146 172.613 76.5107 174.508 75.3226C176.449 74.1275 178.642 73.3423 181.087 72.9669ZM212.275 55.4302L220.137 106.63L212.25 107.841L204.388 56.6413L212.275 55.4302ZM262.363 79.6792C262.582 81.1091 262.689 82.4148 262.681 83.5962L233.552 88.069C234.251 91.0779 235.756 93.349 238.069 94.8824C240.382 96.4158 243.014 96.9559 245.966 96.5026C250.21 95.851 252.935 93.6148 254.143 89.7939L262.653 88.4872C262.038 92.1698 260.382 95.3749 257.685 98.1026C255.027 100.777 251.46 102.458 246.986 103.145C243.342 103.704 239.943 103.4 236.789 102.232C233.675 101.01 231.06 99.0511 228.947 96.354C226.872 93.6037 225.533 90.2682 224.931 86.3475C224.329 82.4268 224.586 78.87 225.701 75.6771C226.855 72.431 228.738 69.7812 231.35 67.7276C234.008 65.667 237.205 64.3499 240.941 63.7762C244.539 63.2237 247.865 63.5156 250.92 64.6518C253.974 65.7881 256.505 67.6657 258.512 70.2847C260.513 72.8576 261.796 75.9891 262.363 79.6792ZM253.747 78.4526C253.255 75.5538 251.859 73.3838 249.56 71.9426C247.262 70.5014 244.613 70.0111 241.615 70.4714C238.894 70.8893 236.699 72.1234 235.031 74.1737C233.355 76.1778 232.56 78.6842 232.644 81.693L253.747 78.4526ZM287.129 96.9808C284.131 97.4412 281.351 97.3251 278.789 96.6325C276.267 95.8867 274.172 94.6975 272.505 93.0649C270.831 91.3862 269.771 89.4008 269.324 87.1087L277.489 85.855C277.875 87.4482 278.845 88.6921 280.399 89.5866C281.991 90.4279 283.849 90.6857 285.971 90.3599C288.185 90.0199 289.828 89.3427 290.899 88.3283C292.01 87.2607 292.463 86.0581 292.257 84.7204C292.038 83.2905 291.183 82.3358 289.693 81.8564C288.249 81.3699 285.987 80.9382 282.908 80.5612C279.928 80.2162 277.481 79.8128 275.569 79.351C273.657 78.8892 271.915 77.9999 270.344 76.6832C268.819 75.3593 267.865 73.452 267.482 70.9612C267.171 68.9317 267.487 66.9945 268.431 65.1498C269.368 63.259 270.87 61.6593 272.935 60.3507C275.046 59.035 277.555 58.154 280.461 57.7078C284.797 57.0421 288.449 57.6143 291.419 59.4247C294.427 61.1818 296.313 63.9374 297.079 67.6914L289.191 68.9025C288.791 67.2171 287.89 65.9626 286.489 65.1391C285.088 64.3155 283.326 64.0667 281.204 64.3925C279.129 64.7112 277.597 65.3476 276.611 66.3018C275.624 67.2559 275.23 68.3787 275.428 69.6702C275.584 70.685 276.084 71.4817 276.928 72.0603C277.773 72.6388 278.757 73.0542 279.882 73.3065C280.999 73.5126 282.642 73.7561 284.81 74.037C287.691 74.35 290.068 74.7641 291.941 75.2791C293.853 75.7409 295.568 76.6106 297.086 77.8883C298.605 79.1661 299.575 81.0237 299.996 83.4613C300.329 85.6292 300.027 87.6586 299.09 89.5494C298.152 91.4402 296.651 93.04 294.586 94.3486C292.567 95.6501 290.081 96.5275 287.129 96.9808ZM324.088 91.3057C321.09 91.766 318.31 91.6499 315.749 90.9573C313.226 90.2115 311.132 89.0223 309.465 87.3898C307.79 85.7111 306.73 83.7257 306.284 81.4335L314.448 80.1799C314.834 81.7731 315.804 83.0169 317.358 83.9115C318.951 84.7528 320.808 85.0106 322.93 84.6848C325.144 84.3448 326.787 83.6676 327.859 82.6532C328.97 81.5855 329.422 80.3829 329.217 79.0452C328.997 77.6153 328.143 76.6607 326.652 76.1813C325.209 75.6948 322.947 75.263 319.867 74.8861C316.887 74.541 314.441 74.1376 312.529 73.6759C310.616 73.2141 308.875 72.3248 307.303 71.008C305.778 69.6842 304.824 67.7769 304.442 65.286C304.13 63.2565 304.446 61.3194 305.391 59.4747C306.328 57.5839 307.829 55.9842 309.894 54.6755C312.006 53.3598 314.515 52.4789 317.42 52.0327C321.756 51.3669 325.409 51.9392 328.378 53.7495C331.386 55.5067 333.273 58.2622 334.038 62.0162L326.151 63.2274C325.75 61.542 324.849 60.2875 323.448 59.4639C322.047 58.6404 320.285 58.3915 318.164 58.7173C316.088 59.036 314.557 59.6725 313.57 60.6266C312.584 61.5807 312.189 62.7036 312.388 63.9951C312.544 65.0099 313.044 65.8065 313.888 66.3851C314.732 66.9637 315.717 67.3791 316.841 67.6313C317.959 67.8374 319.601 68.0809 321.769 68.3618C324.65 68.6749 327.027 69.0889 328.9 69.6039C330.813 70.0657 332.528 70.9355 334.046 72.2132C335.564 73.4909 336.534 75.3486 336.955 77.7862C337.288 79.9541 336.986 81.9835 336.049 83.8743C335.112 85.7651 333.61 87.3648 331.545 88.6734C329.526 89.9749 327.04 90.8524 324.088 91.3057Z" fill="black"/>
</svg>
