<svg width="349" height="87" viewBox="0 0 349 87" fill="none" xmlns="http://www.w3.org/2000/svg">
<path d="M23.2689 81.3923C19.1095 81.3369 15.6515 80.8247 12.8909 79.8597C8.36706 78.251 5.10719 75.8258 3.11126 72.5841C1.11135 69.3462 0.153795 64.8188 0.230583 59.0136L0.427201 44.1491C0.528593 36.4838 2.60874 30.6856 6.66378 26.7503C10.7188 22.819 15.9061 20.8935 22.2217 20.9777C27.2256 21.0444 32.3701 22.3532 37.6514 24.9002L35.2544 31.4881C30.8858 29.7275 26.9734 28.8222 23.5053 28.7759C19.1181 28.7175 15.5783 29.9303 12.886 32.4104C10.1977 34.8906 8.81679 38.6087 8.75123 43.5649L8.52849 60.4039C8.46805 64.9731 9.905 68.3022 12.8433 70.3913C15.7815 72.4844 19.5581 73.5578 24.181 73.6194C27.7983 73.6676 31.5009 73.2153 35.2887 72.2586L37.1542 79.7171C32.3618 80.8895 27.7347 81.4519 23.2689 81.3923Z" fill="#C7FFA3"/>
<path d="M67.2706 82.092C59.1876 81.9843 52.7741 80.39 48.042 77.3053C43.3059 74.2245 40.9941 68.7311 41.0985 60.8368L41.226 51.197C41.3274 43.5318 44.0505 38.4215 49.3994 35.8582C51.9569 34.6561 55.0837 34.0737 58.7796 34.1229C62.1692 34.1681 65.5872 34.7351 69.0375 35.8278C72.4878 36.9205 75.3177 38.2932 77.531 39.9501C77.6364 31.9768 72.2612 27.9158 61.4053 27.7711L62.0641 21.6221C69.4559 21.7207 74.8878 22.9741 78.36 25.3824C81.8322 27.7906 83.9514 30.6272 84.7175 33.8881C85.4836 37.149 85.8328 41.3365 85.7652 46.4467L85.3075 81.0528C76.9814 81.7949 70.9665 82.1413 67.2706 82.092ZM68.5859 43.8359C65.3673 42.7463 62.4088 42.1855 59.7145 42.1496C53.0139 42.0602 49.6236 45.3447 49.5355 52.0029L49.4157 61.0622C49.2989 69.8885 55.2459 74.3797 67.2605 74.5399C69.6446 74.5717 72.9238 74.3428 77.0903 73.8573L77.439 47.493C74.7621 46.142 71.8124 44.9217 68.5938 43.8321L68.5859 43.8359Z" fill="#C7FFA3"/>
<path d="M102.625 72.8657C105.145 74.4871 108.139 75.321 111.603 75.3671C114.761 75.4092 117.56 74.6921 120.007 73.212C122.45 71.7357 123.694 69.4851 123.734 66.468C123.761 64.3789 123.187 62.6294 122.012 61.2194C120.836 59.8095 119.35 58.6876 117.551 57.85C115.751 57.0123 113.281 56.0314 110.138 54.9073C106.38 53.5419 103.372 52.3208 101.115 51.244C98.8552 50.1672 96.8762 48.6122 95.1708 46.5751C93.4654 44.5379 92.4392 41.9332 92.0963 38.753L92.0008 37.3574C92.0346 34.8023 92.7785 32.316 94.2365 29.8944C95.6945 27.4729 97.9125 25.5117 100.898 23.9992C103.884 22.4907 107.61 21.7662 112.076 21.8258C114.538 21.8586 116.711 22.1403 118.593 22.6671C120.472 23.1977 121.946 23.7387 123.019 24.2941C124.088 24.8495 124.739 25.2098 124.969 25.3669L122.217 32.6492C121.987 32.4921 121.473 32.1732 120.67 31.7003C119.867 31.2236 118.698 30.7656 117.164 30.3186C115.63 29.8715 113.901 29.6352 111.977 29.6095C108.355 29.5613 105.497 30.3368 103.398 31.9361C101.299 33.5355 100.382 35.7273 100.655 38.5195C100.859 40.6117 101.973 42.2736 103.995 43.5013C106.018 44.729 109.103 46.1052 113.239 47.6336C117.301 49.082 120.614 50.4612 123.178 51.7751C125.741 53.0851 127.909 54.9349 129.688 57.3206C131.464 59.7063 132.33 62.7986 132.28 66.5898C132.217 71.3919 130.432 75.3733 126.925 78.5416C123.418 81.7061 118.275 83.2451 111.5 83.1548C107.109 83.0962 103.329 82.2914 100.152 80.7363C96.9747 79.1851 94.5777 77.1585 92.953 74.6603C91.3283 72.1621 90.4613 69.4015 90.3481 66.3784L98.4397 66.1386C98.7081 69.0098 100.104 71.2522 102.625 72.8736L102.625 72.8657Z" fill="#C7FFA3"/>
<path d="M174.52 43.6818C174.581 39.1126 173.391 35.8065 170.955 33.7597C168.515 31.7127 165.375 30.6636 161.525 30.6123C159.291 30.5825 157.016 30.8642 154.699 31.4495C152.381 32.0387 150.367 32.8256 148.661 33.81L148.025 81.8907L139.71 81.7799L140.785 0.486938L149.1 0.597792L148.764 26.0302C150.395 25.0448 152.425 24.2779 154.86 23.7297C157.295 23.1816 159.82 22.923 162.436 22.9578C166.827 23.0164 170.435 23.7597 173.264 25.1917C176.325 26.6268 178.705 28.748 180.4 31.5591C182.096 34.3703 182.917 37.9045 182.861 42.1617L182.329 82.3441L174.014 82.2333L174.524 43.6779L174.52 43.6818Z" fill="#C7FFA3"/>
<path d="M195.873 1.21994L204.189 1.33079L203.114 82.6247L194.797 82.5138L195.873 1.21994Z" fill="#C7FFA3"/>
<path d="M242.148 83.1436C238.593 84.0244 235.044 84.4432 231.505 84.396C225.806 84.32 221.3 82.8459 217.991 79.9777C214.679 77.1094 213.061 72.8457 213.136 67.1945L213.451 43.3853C213.534 37.1141 215.543 32.2629 219.477 28.8316C223.412 25.4003 228.572 23.7272 234.966 23.8125C241.36 23.8977 246.322 25.6899 249.854 29.1813C253.391 32.6766 255.118 37.4789 255.038 43.5961L254.827 59.5071L221.541 60.8052L221.461 66.8434C221.418 70.0935 222.383 72.5474 224.365 74.2011C226.346 75.8549 229.069 76.7048 232.534 76.751C237.537 76.8177 242.911 75.3411 248.651 72.3209L251.679 79.2142C248.883 80.9583 245.707 82.2708 242.156 83.1516L242.148 83.1436ZM242.909 34.1958C240.391 32.4204 237.669 31.5112 234.743 31.4721C230.89 31.4208 227.777 32.426 225.405 34.4838C223.029 36.5416 221.814 39.5865 221.76 43.6106L221.638 52.9029L246.489 51.9584L246.607 43.0176C246.661 38.9145 245.427 35.9752 242.909 34.1997L242.909 34.1958Z" fill="#C7FFA3"/>
<path d="M272.175 75.1218C274.695 76.7432 277.689 77.577 281.154 77.6232C284.311 77.6653 287.11 76.9482 289.557 75.468C292.001 73.9918 293.244 71.7412 293.284 68.7241C293.312 66.635 292.738 64.8854 291.562 63.4755C290.387 62.0655 288.901 60.9437 287.101 60.1061C285.301 59.2684 282.831 58.2875 279.688 57.1634C275.931 55.798 272.922 54.5769 270.666 53.5001C268.406 52.4233 266.427 50.8683 264.721 48.8311C263.016 46.794 261.99 44.1893 261.647 41.009L261.551 39.6135C261.585 37.0584 262.329 34.572 263.787 32.1505C265.245 29.7289 267.463 27.7678 270.449 26.2553C273.435 24.7468 277.16 24.0223 281.626 24.0818C284.089 24.1147 286.261 24.3964 288.144 24.9231C290.022 25.4538 291.496 25.9948 292.569 26.5502C293.638 27.1056 294.289 27.4658 294.519 27.6229L291.767 34.9053C291.538 34.7481 291.023 34.4293 290.22 33.9564C289.417 33.4796 288.249 33.0217 286.715 32.5746C285.181 32.1276 283.452 31.8913 281.527 31.8656C277.906 31.8173 275.047 32.5929 272.948 34.1922C270.849 35.7916 269.932 37.9833 270.206 40.7756C270.41 42.8677 271.523 44.5296 273.546 45.7574C275.568 46.9851 278.653 48.3612 282.789 49.8896C286.852 51.3381 290.165 52.7173 292.728 54.0312C295.292 55.3412 297.459 57.191 299.239 59.5767C301.014 61.9623 301.881 65.0547 301.83 68.8459C301.767 73.648 299.982 77.6293 296.475 80.7977C292.969 83.9622 287.826 85.5012 281.051 85.4109C276.659 85.3523 272.879 84.5475 269.702 82.9924C266.525 81.4412 264.128 79.4146 262.503 76.9164C260.879 74.4182 260.012 71.6575 259.898 68.6344L267.99 68.3947C268.258 71.2659 269.655 73.5082 272.175 75.1297L272.175 75.1218Z" fill="#C7FFA3"/>
<path d="M318.487 75.738C321.007 77.3594 324.002 78.1933 327.466 78.2395C330.624 78.2816 333.422 77.5644 335.869 76.0843C338.313 74.608 339.556 72.3574 339.596 69.3403C339.624 67.2512 339.05 65.5017 337.874 64.0917C336.699 62.6818 335.213 61.56 333.413 60.7223C331.613 59.8846 329.144 58.9038 326 57.7796C322.243 56.4142 319.234 55.1931 316.978 54.1163C314.718 53.0395 312.739 51.4845 311.033 49.4474C309.328 47.4102 308.302 44.8055 307.959 41.6253L307.863 40.2297C307.897 37.6746 308.641 35.1883 310.099 32.7667C311.557 30.3452 313.775 28.384 316.761 26.8716C319.747 25.363 323.473 24.6386 327.938 24.6981C330.401 24.7309 332.573 25.0127 334.456 25.5394C336.335 26.07 337.808 26.611 338.881 27.1665C339.95 27.7218 340.602 28.0821 340.831 28.2392L338.079 35.5215C337.85 35.3644 337.335 35.0455 336.532 34.5727C335.73 34.0959 334.561 33.6379 333.027 33.1909C331.493 32.7439 329.764 32.5075 327.839 32.4819C324.218 32.4336 321.36 33.2091 319.26 34.8085C317.161 36.4078 316.244 38.5996 316.518 41.3918C316.722 43.484 317.835 45.1459 319.858 46.3736C321.88 47.6013 324.965 48.9775 329.101 50.5059C333.164 51.9543 336.477 53.3335 339.04 54.6475C341.604 55.9574 343.771 57.8072 345.551 60.1929C347.326 62.5786 348.193 65.671 348.143 69.4621C348.079 74.2643 346.294 78.2456 342.787 81.414C339.281 84.5824 334.138 86.1174 327.363 86.0271C322.972 85.9686 319.191 85.1638 316.014 83.6086C312.837 82.0574 310.44 80.0308 308.816 77.5326C307.191 75.0344 306.324 72.2738 306.211 69.2507L314.302 69.011C314.571 71.8821 315.967 74.1245 318.487 75.7459L318.487 75.738Z" fill="#C7FFA3"/>
</svg>
