<svg width="174" height="109" viewBox="0 0 174 109" fill="none" xmlns="http://www.w3.org/2000/svg">
<g filter="url(#filter0_d_177_5230)">
<g clip-path="url(#clip0_177_5230)">
<rect x="4" width="166" height="100.181" rx="8" fill="black"/>
<circle cx="305" cy="154" r="186" fill="white" fill-opacity="0.1"/>
</g>
</g>
<path d="M60.0418 60.7506C59.1049 60.7376 58.3259 60.6201 57.7039 60.3989C56.6848 60.0302 55.9503 59.4744 55.5005 58.7317C55.0498 57.9898 54.8339 56.9526 54.8509 55.6227L54.8944 52.2175C54.9169 50.4616 55.3852 49.1334 56.2984 48.2321C57.2117 47.3317 58.3801 46.8909 59.8029 46.9105C60.9301 46.9261 62.089 47.2262 63.2789 47.8099L62.7392 49.319C61.755 48.9154 60.8736 48.7078 60.0924 48.697C59.1041 48.6834 58.3068 48.961 57.7004 49.5291C57.0949 50.0971 56.7841 50.9488 56.7695 52.0841L56.7202 55.9417C56.7068 56.9884 57.0307 57.7511 57.6927 58.2299C58.3547 58.7095 59.2055 58.9556 60.2469 58.97C61.0618 58.9812 61.8958 58.8778 62.749 58.6588L63.1697 60.3675C62.0901 60.6359 61.0478 60.7644 60.0418 60.7506Z" fill="#DFE6DA"/>
<path d="M69.9503 60.9107C68.1295 60.8856 66.6848 60.52 65.6187 59.8131C64.5517 59.1072 64.0307 57.8486 64.0538 56.0402L64.082 53.832C64.1045 52.076 64.7176 50.9055 65.9223 50.3186C66.4984 50.0434 67.2027 49.9101 68.0352 49.9216C68.7987 49.9322 69.5686 50.0622 70.3459 50.3127C71.1232 50.5632 71.7607 50.8778 72.2593 51.2575C72.2827 49.431 71.0717 48.5004 68.6263 48.4667L68.7744 47.0582C70.4394 47.0811 71.6631 47.3685 72.4453 47.9204C73.2276 48.4723 73.7051 49.1222 73.8778 49.8692C74.0505 50.6163 74.1294 51.5755 74.1144 52.7462L74.0131 60.6736C72.1377 60.8432 70.7828 60.9222 69.9503 60.9107ZM70.2446 52.1472C69.5195 51.8974 68.8531 51.7688 68.2462 51.7604C66.7368 51.7396 65.9733 52.4918 65.9538 54.017L65.9273 56.0923C65.9014 58.1142 67.2413 59.1433 69.9476 59.1807C70.4846 59.1881 71.2233 59.1358 72.1618 59.0248L72.239 52.9854C71.6359 52.6758 70.9714 52.3961 70.2464 52.1463L70.2446 52.1472Z" fill="#DFE6DA"/>
<path d="M77.9101 58.7967C78.4779 59.1683 79.1524 59.3594 79.9327 59.3702C80.644 59.38 81.2744 59.2159 81.8256 58.8769C82.3759 58.5389 82.6559 58.0234 82.6648 57.3322C82.6709 56.8537 82.5415 56.4529 82.2766 56.1298C82.0118 55.8067 81.677 55.5497 81.2715 55.3577C80.8661 55.1657 80.3097 54.9409 79.6015 54.6832C78.7551 54.3702 78.0773 54.0903 77.569 53.8435C77.0598 53.5967 76.614 53.2404 76.2297 52.7736C75.8454 52.3069 75.6141 51.7101 75.5367 50.9816L75.5151 50.6619C75.5226 50.0766 75.6901 49.507 76.0184 48.9524C76.3467 48.3977 76.8462 47.9486 77.5187 47.6023C78.1912 47.2569 79.0305 47.0911 80.0364 47.105C80.5912 47.1126 81.0806 47.1773 81.5047 47.2981C81.9278 47.4197 82.2599 47.5437 82.5016 47.671C82.7424 47.7983 82.8891 47.8809 82.9409 47.9169L82.3214 49.5849C82.2696 49.5489 82.1538 49.4759 81.9729 49.3675C81.792 49.2582 81.5287 49.1533 81.1831 49.0508C80.8376 48.9483 80.448 48.8941 80.0145 48.8881C79.1988 48.8768 78.555 49.0543 78.0822 49.4206C77.6094 49.7869 77.403 50.2889 77.4647 50.9286C77.5108 51.4079 77.7617 51.7886 78.2173 52.07C78.673 52.3513 79.368 52.6667 80.2998 53.0171C81.2149 53.3491 81.9613 53.6652 82.5388 53.9664C83.1163 54.2666 83.6047 54.6905 84.0056 55.2371C84.4057 55.7837 84.6011 56.4921 84.59 57.3606C84.5759 58.4607 84.174 59.3726 83.3842 60.0982C82.5945 60.823 81.4361 61.1752 79.9099 61.1542C78.9208 61.1406 78.0692 60.956 77.3535 60.5996C76.6377 60.2441 76.0977 59.7797 75.7315 59.2073C75.3654 58.6349 75.17 58.0025 75.1443 57.3099L76.967 57.2554C77.0276 57.9132 77.3423 58.4269 77.9101 58.7985L77.9101 58.7967Z" fill="#DFE6DA"/>
<path d="M94.1006 52.1118C94.114 51.0651 93.8458 50.3076 93.2969 49.8386C92.7471 49.3695 92.0396 49.129 91.1724 49.1171C90.669 49.1101 90.1566 49.1746 89.6345 49.3085C89.1124 49.4434 88.6588 49.6235 88.2745 49.8489L88.1336 60.8636L86.2604 60.8378L86.4985 42.2146L88.3717 42.2404L88.2972 48.0667C88.6647 47.841 89.1219 47.6655 89.6704 47.54C90.2189 47.4146 90.7879 47.3554 91.3772 47.3636C92.3664 47.3772 93.1793 47.5477 93.8167 47.8759C94.5063 48.2048 95.0426 48.6909 95.4247 49.335C95.8067 49.9791 95.992 50.7888 95.9795 51.764L95.8618 60.9693L93.9886 60.9435L94.1015 52.1109L94.1006 52.1118Z" fill="#DFE6DA"/>
<path d="M98.9041 42.3826L100.78 42.4084L100.542 61.0336L98.6655 61.0078L98.9041 42.3826Z" fill="#DFE6DA"/>
<path d="M109.33 61.1519C108.53 61.3535 107.73 61.4492 106.933 61.4382C105.649 61.4205 104.634 61.0826 103.889 60.4253C103.142 59.7681 102.778 58.7913 102.794 57.4967L102.864 52.0425C102.883 50.6059 103.335 49.4947 104.221 48.7089C105.107 47.9231 106.269 47.5401 107.71 47.5599C109.15 47.5798 110.268 47.9906 111.064 48.7906C111.86 49.5915 112.25 50.6917 112.232 52.093L112.185 55.7379L104.687 56.0335L104.67 57.4167C104.66 58.1613 104.878 58.7235 105.324 59.1024C105.771 59.4813 106.384 59.6762 107.164 59.687C108.292 59.7025 109.502 59.3645 110.795 58.673L111.477 60.2522C110.847 60.6516 110.132 60.9521 109.332 61.1537L109.33 61.1519ZM109.5 49.939C108.932 49.5321 108.319 49.3237 107.66 49.3146C106.792 49.3026 106.091 49.5327 105.556 50.004C105.021 50.4753 104.748 51.1727 104.736 52.0946L104.709 54.2233L110.307 54.0082L110.333 51.9601C110.345 51.0201 110.067 50.3467 109.499 49.9399L109.5 49.939Z" fill="#DFE6DA"/>
<path d="M116.091 59.3135C116.658 59.6851 117.333 59.8763 118.113 59.8871C118.824 59.8969 119.455 59.7327 120.006 59.3938C120.556 59.0557 120.836 58.5402 120.845 57.8491C120.851 57.3705 120.722 56.9697 120.457 56.6466C120.192 56.3236 119.857 56.0665 119.452 55.8745C119.046 55.6826 118.49 55.4577 117.782 55.2C116.936 54.8871 116.258 54.6072 115.749 54.3604C115.24 54.1136 114.794 53.7573 114.41 53.2905C114.026 52.8237 113.795 52.227 113.717 51.4984L113.696 51.1787C113.703 50.5934 113.87 50.0239 114.199 49.4692C114.527 48.9146 115.027 48.4654 115.699 48.1191C116.372 47.7737 117.211 47.6079 118.217 47.6218C118.772 47.6295 119.261 47.6941 119.685 47.8149C120.108 47.9366 120.44 48.0606 120.682 48.1879C120.923 48.3151 121.07 48.3977 121.121 48.4337L120.502 50.1018C120.45 50.0658 120.334 49.9927 120.153 49.8843C119.972 49.7751 119.709 49.6701 119.364 49.5676C119.018 49.4651 118.628 49.4109 118.195 49.4049C117.379 49.3937 116.735 49.5712 116.263 49.9374C115.79 50.3037 115.583 50.8058 115.645 51.4454C115.691 51.9247 115.942 52.3055 116.398 52.5868C116.853 52.8682 117.548 53.1836 118.48 53.5339C119.395 53.866 120.142 54.1821 120.719 54.4832C121.297 54.7834 121.785 55.2073 122.186 55.7539C122.586 56.3005 122.781 57.009 122.77 57.8774C122.756 58.9775 122.354 59.8895 121.565 60.6151C120.775 61.3398 119.617 61.6921 118.09 61.671C117.101 61.6574 116.25 61.4728 115.534 61.1164C114.818 60.7609 114.278 60.2965 113.912 59.7241C113.546 59.1518 113.35 58.5193 113.325 57.8268L115.147 57.7723C115.208 58.43 115.523 58.9438 116.09 59.3154L116.091 59.3135Z" fill="#DFE6DA"/>
<path d="M126.52 59.4547C127.087 59.8262 127.762 60.0174 128.542 60.0282C129.254 60.038 129.884 59.8738 130.435 59.5349C130.986 59.1969 131.266 58.6814 131.274 57.9902C131.281 57.5116 131.151 57.1108 130.886 56.7878C130.621 56.4647 130.287 56.2076 129.881 56.0157C129.476 55.8237 128.919 55.5988 128.211 55.3411C127.365 55.0282 126.687 54.7483 126.179 54.5015C125.669 54.2547 125.224 53.8984 124.839 53.4316C124.455 52.9648 124.224 52.3681 124.146 51.6396L124.125 51.3199C124.132 50.7345 124.3 50.165 124.628 49.6103C124.956 49.0557 125.456 48.6066 126.128 48.2602C126.801 47.9148 127.64 47.7491 128.646 47.7629C129.201 47.7706 129.69 47.8352 130.114 47.956C130.537 48.0777 130.869 48.2017 131.111 48.329C131.352 48.4563 131.499 48.5388 131.551 48.5748L130.931 50.2429C130.879 50.2069 130.763 50.1338 130.582 50.0255C130.402 49.9162 130.138 49.8112 129.793 49.7087C129.447 49.6063 129.058 49.552 128.624 49.546C127.808 49.5348 127.165 49.7123 126.692 50.0786C126.219 50.4448 126.013 50.9469 126.074 51.5865C126.12 52.0658 126.371 52.4466 126.827 52.7279C127.283 53.0093 127.978 53.3247 128.909 53.6751C129.825 54.0071 130.571 54.3232 131.148 54.6243C131.726 54.9246 132.214 55.3484 132.615 55.895C133.015 56.4416 133.211 57.1501 133.2 58.0186C133.186 59.1186 132.784 60.0306 131.994 60.7562C131.204 61.4818 130.046 61.8332 128.52 61.8122C127.53 61.7985 126.679 61.6139 125.963 61.2575C125.247 60.902 124.707 60.4376 124.341 59.8653C123.975 59.2929 123.78 58.6604 123.754 57.9679L125.577 57.9134C125.637 58.5711 125.952 59.0849 126.52 59.4565L126.52 59.4547Z" fill="#DFE6DA"/>
<g clip-path="url(#clip1_177_5230)">
<path d="M146.654 16.6399C146.823 16.8441 146.95 17.0891 147.035 17.3341C147.119 17.5791 147.162 17.865 147.162 18.1508C147.162 18.4367 147.119 18.7225 147.035 18.9675C146.95 19.2125 146.823 19.4575 146.654 19.6617C146.442 19.9475 146.484 20.3559 146.781 20.5601C147.077 20.7642 147.501 20.7234 147.712 20.4376C147.966 20.1109 148.136 19.7842 148.305 19.3759C148.474 18.9675 148.517 18.5592 148.517 18.1508C148.517 17.7425 148.432 17.3341 148.305 16.9258C148.178 16.5583 147.966 16.1908 147.712 15.8641C147.501 15.5782 147.077 15.5374 146.781 15.7416C146.484 15.9458 146.442 16.3541 146.654 16.6399Z" fill="white"/>
<path d="M148.983 15.4557C149.491 16.2316 149.787 17.1708 149.787 18.1508C149.787 19.1308 149.491 20.07 148.983 20.8459C148.771 21.1317 148.898 21.5401 149.194 21.7443C149.533 21.9484 149.914 21.8259 150.126 21.5401C150.761 20.5601 151.142 19.4167 151.142 18.1508C151.142 16.9258 150.761 15.7416 150.126 14.7615C149.914 14.4757 149.491 14.3532 149.194 14.5574C148.898 14.7615 148.771 15.1291 148.983 15.4557Z" fill="white"/>
<path d="M151.439 14.2307C152.159 15.3741 152.54 16.7216 152.54 18.1508C152.54 19.58 152.116 20.9276 151.439 22.0709C151.269 22.3976 151.354 22.7651 151.693 22.9693C152.032 23.1326 152.413 23.051 152.624 22.7243C153.471 21.3767 153.937 19.825 153.937 18.1508C153.937 16.4766 153.471 14.9249 152.624 13.5773C152.455 13.2507 152.032 13.169 151.693 13.3323C151.354 13.5365 151.269 13.904 151.439 14.2307Z" fill="white"/>
<path d="M153.895 13.0057C154.784 14.5165 155.335 16.2724 155.335 18.1508C155.335 20.0292 154.827 21.7851 153.895 23.296C153.725 23.6226 153.81 23.9902 154.149 24.1943C154.488 24.3577 154.869 24.276 155.081 23.9493C156.097 22.2343 156.69 20.2742 156.69 18.1508C156.69 16.0274 156.097 14.0674 155.081 12.3523C154.911 12.0256 154.488 11.944 154.149 12.1073C153.81 12.2706 153.725 12.679 153.895 13.0057Z" fill="white"/>
</g>
<defs>
<filter id="filter0_d_177_5230" x="0" y="0" width="174" height="108.181" filterUnits="userSpaceOnUse" color-interpolation-filters="sRGB">
<feFlood flood-opacity="0" result="BackgroundImageFix"/>
<feColorMatrix in="SourceAlpha" type="matrix" values="0 0 0 0 0 0 0 0 0 0 0 0 0 0 0 0 0 0 127 0" result="hardAlpha"/>
<feOffset dy="4"/>
<feGaussianBlur stdDeviation="2"/>
<feComposite in2="hardAlpha" operator="out"/>
<feColorMatrix type="matrix" values="0 0 0 0 0.4375 0 0 0 0 0.4375 0 0 0 0 0.4375 0 0 0 0.25 0"/>
<feBlend mode="normal" in2="BackgroundImageFix" result="effect1_dropShadow_177_5230"/>
<feBlend mode="normal" in="SourceGraphic" in2="effect1_dropShadow_177_5230" result="shape"/>
</filter>
<clipPath id="clip0_177_5230">
<rect x="4" width="166" height="100.181" rx="8" fill="white"/>
</clipPath>
<clipPath id="clip1_177_5230">
<rect x="144.834" y="11.6169" width="13.551" height="13.0671" rx="6.53353" fill="white"/>
</clipPath>
</defs>
</svg>
