<svg width="128" height="181" viewBox="0 0 128 181" fill="none" xmlns="http://www.w3.org/2000/svg">
<g style="mix-blend-mode:multiply">
<path d="M63.8362 4.43155C70.0446 2.29409 76.8521 5.71924 79.0428 12.0821L122.342 137.848C124.532 144.208 121.275 151.101 115.068 153.238L72.5283 167.884C66.3199 170.021 59.5139 166.596 57.3233 160.233L14.024 34.4671C11.8344 28.1072 15.0895 21.2143 21.2964 19.0773L63.8362 4.43155Z" fill="white"/>
<path d="M63.4165 6.11548C69.5522 4.00304 76.3194 7.50304 78.5325 13.931L121.072 137.489C123.285 143.919 120.106 150.841 113.971 152.954L72.3046 167.299C66.1703 169.41 59.4021 165.913 57.1886 159.483L14.6479 35.9204C12.4348 29.4924 15.6147 22.5678 21.7489 20.4559L63.4165 6.11548Z" fill="#F8F8F8"/>
<path d="M62.9974 7.80125C69.0544 5.71592 75.7883 9.28664 78.0243 15.7812L119.808 137.145C122.045 143.641 118.942 150.599 112.879 152.686L72.0897 166.729C66.0251 168.817 59.2972 165.244 57.0607 158.748L15.2769 37.3842C13.0409 30.8896 16.1435 23.9323 22.2081 21.8444L62.9974 7.80125Z" fill="#F0F0F0"/>
<path d="M62.5781 9.48507C68.57 7.42216 75.2571 11.0683 77.516 17.6295L118.545 136.801C120.803 143.361 117.779 150.352 111.787 152.415L71.8696 166.158C65.8777 168.221 59.19 164.573 56.9316 158.013L15.9028 38.842C13.6439 32.2808 16.6691 25.2908 22.661 23.2279L62.5781 9.48507Z" fill="#E9E9E9"/>
<path d="M62.1586 11.1692C68.0778 9.1313 74.7261 12.8518 77.008 19.4796L117.277 136.443C119.558 143.069 116.609 150.094 110.69 152.132L71.6466 165.574C65.7274 167.612 59.079 163.891 56.7977 157.265L16.5289 40.3016C14.2471 33.6738 17.196 26.6491 23.1152 24.6112L62.1586 11.1692Z" fill="#E2E2E2"/>
<path d="M61.7406 12.8526C67.5871 10.8398 74.1951 14.6351 76.4973 21.322L116.011 136.091C118.315 142.784 115.442 149.837 109.595 151.85L71.424 164.992C65.5775 167.005 58.9685 163.211 56.6658 156.523L17.1545 41.7596C14.8502 35.0666 17.725 28.0133 23.5715 26.0004L61.7406 12.8526Z" fill="#DBDADA"/>
<path d="M61.322 14.5382C67.0958 12.5504 73.6646 16.4185 75.9913 23.1766L114.745 135.74C117.072 142.499 114.277 149.591 108.503 151.579L71.2056 164.42C65.4303 166.408 58.8631 162.54 56.5358 155.78L17.7821 43.2171C15.4554 36.4591 18.2492 29.3675 24.0245 27.3792L61.322 14.5382Z" fill="#D3D3D3"/>
<path d="M60.9021 16.2223C66.6047 14.2589 73.1327 18.2004 75.4829 25.0266L113.479 135.388C115.829 142.214 113.111 149.339 107.408 151.302L70.9843 163.842C65.2817 165.806 58.7537 161.864 56.4036 155.038L18.4078 44.6767C16.0577 37.8504 18.7757 30.7257 24.4784 28.7624L60.9021 16.2223Z" fill="#CCCCCC"/>
<path d="M60.4855 17.9053C66.1155 15.967 72.6046 19.9827 74.9772 26.8741L112.215 135.035C114.589 141.928 111.946 149.086 106.316 151.024L70.7633 163.265C65.1333 165.203 58.6447 161.189 56.2716 154.296L19.0333 46.1347C16.6607 39.2433 19.3025 32.084 24.9325 30.1456L60.4855 17.9053Z" fill="#C5C5C4"/>
<path d="M60.0635 19.592C65.6223 17.6782 72.0707 21.7673 74.4662 28.7253L110.947 134.686C113.342 141.643 110.778 148.835 105.219 150.749L70.5424 162.687C64.9836 164.601 58.5368 160.511 56.1418 153.555L19.661 47.5938C17.2629 40.6283 19.8285 33.4443 25.3873 31.5305L60.0635 19.592Z" fill="#BDBDBD"/>
<path d="M59.6443 21.276C65.1304 19.3872 71.5395 23.5491 73.9585 30.5752L109.681 134.334C112.099 141.358 109.612 148.586 104.125 150.475L70.3304 162.11C64.8443 163.999 58.4362 159.835 56.0178 152.81L20.2951 49.0507C17.8766 42.0261 20.3632 34.7999 25.8493 32.9111L59.6443 21.276Z" fill="#B6B6B6"/>
<path d="M59.2245 22.96C64.6394 21.0958 71.0088 25.3391 73.4481 32.4242L108.413 133.983C110.854 141.073 108.442 148.333 103.03 150.196L70.1026 161.533C64.6877 163.397 58.3168 159.154 55.878 152.07L20.9128 50.5113C18.4714 43.4201 20.8837 36.1602 26.2971 34.2964L59.2245 22.96Z" fill="#AFAFAE"/>
<path d="M58.8056 24.6455C64.1479 22.8062 70.4758 27.1163 72.9396 34.2726L107.147 133.631C109.611 140.788 107.278 148.08 101.935 149.919L69.8818 160.955C64.5395 162.794 58.2101 158.484 55.7462 151.328L21.5385 51.9692C19.0747 44.8129 21.4097 37.5203 26.752 35.681L58.8056 24.6455Z" fill="#A7A7A7"/>
<path d="M58.386 26.3295C63.6571 24.5147 69.9418 28.9007 72.428 36.1221L105.878 133.281C108.365 140.504 106.109 147.829 100.841 149.642L69.6609 160.377C64.3898 162.192 58.1056 157.807 55.6189 150.584L22.1686 53.4257C19.6824 46.2042 21.9381 38.878 27.2062 37.0642L58.386 26.3295Z" fill="#A0A09F"/>
<path d="M57.9669 28.0135C63.1654 26.2238 69.4127 30.6785 71.9234 37.9711L104.616 132.928C107.125 140.218 104.945 147.577 99.747 149.367L69.4409 159.801C64.2425 161.591 57.9951 157.136 55.4844 149.843L22.7922 54.8862C20.2825 47.5967 22.4624 40.2372 27.6608 38.4475L57.9669 28.0135Z" fill="#999998"/>
<path d="M57.5477 29.6992C62.675 27.9339 68.8825 32.465 71.4147 39.8197L103.351 132.581C105.884 139.937 103.781 147.329 98.6537 149.095L69.2213 159.228C64.0956 160.992 57.8865 156.462 55.3538 149.106L23.4176 56.3444C20.8854 48.9897 22.9896 41.597 28.1153 39.8323L57.5477 29.6992Z" fill="#929191"/>
<path d="M57.128 31.3833C62.1826 29.6431 68.3514 34.2485 70.9064 41.6698L102.082 132.222C104.637 139.642 102.61 147.068 97.5557 148.809L68.997 158.641C63.9425 160.381 57.7752 155.775 55.2207 148.355L24.045 57.8035C21.4905 50.3837 23.5147 42.9558 28.5693 41.2156L57.128 31.3833Z" fill="#8A8A89"/>
<path d="M56.71 33.0668C61.6919 31.3516 67.8204 36.0318 70.3979 43.5183L100.818 131.875C103.395 139.361 101.446 146.821 96.4642 148.536L68.7777 158.068C63.7958 159.783 57.6678 155.104 55.0904 147.618L24.6706 59.2614C22.0932 51.775 24.0416 44.314 29.0235 42.5988L56.71 33.0668Z" fill="#838382"/>
<path d="M56.2927 34.7518C61.2019 33.0616 67.2906 37.8131 69.891 45.3662L99.5517 131.518C102.152 139.071 100.279 146.565 95.3702 148.255L68.5559 157.487C63.6467 159.177 57.5575 154.424 54.9571 146.871L25.2933 60.7104C22.6929 53.1573 24.5661 45.6646 29.4753 43.9744L56.2927 34.7518Z" fill="#7C7C7B"/>
<path d="M55.8717 36.4364C60.7172 34.7681 66.7581 39.5971 69.3814 47.2168L98.2857 131.171C100.909 138.791 99.1136 146.318 94.2756 147.983L68.3365 156.914C63.5 158.579 57.4516 153.753 54.8283 146.133L25.924 62.1785C23.3007 54.5588 25.0961 47.0319 29.9326 45.3668L55.8717 36.4364Z" fill="#747473"/>
<path d="M55.4521 38.1205C60.2174 36.4798 66.2286 41.38 68.8743 49.0648L97.021 130.819C99.6673 138.505 97.9477 146.065 93.1809 147.707L68.1171 156.336C63.3502 157.977 57.3411 153.078 54.6948 145.391L26.5481 63.6371C23.9023 55.9523 25.6199 48.3912 30.3882 46.7496L55.4521 38.1205Z" fill="#6D6D6C"/>
<path d="M55.0313 39.8014C59.7255 38.1853 65.6928 43.1598 68.3615 50.9112L95.7518 130.468C98.421 138.221 96.7802 145.813 92.0861 147.43L67.896 155.758C63.2018 157.374 57.2335 152.401 54.5643 144.649L27.1755 65.096C24.5068 57.3446 26.1486 49.7503 30.8428 48.1342L55.0313 39.8014Z" fill="#666665"/>
<path d="M54.6133 41.4898C59.2348 39.8987 65.1628 44.9461 67.8545 52.7641L94.4862 130.118C97.1773 137.935 95.6134 145.563 90.9919 147.154L67.6725 155.183C63.051 156.774 57.1209 151.725 54.4298 143.909L27.7981 66.5549C25.1064 58.7369 26.6724 51.1095 31.2939 49.5184L54.6133 41.4898Z" fill="#5E5E5D"/>
<path d="M54.1943 43.174C58.7446 41.6074 64.6323 46.7296 67.3469 54.6143L93.2206 129.766C95.9347 137.65 94.448 145.311 89.8977 146.877L67.455 154.604C62.9123 156.168 57.017 151.048 54.3029 143.165L28.4292 68.013C25.7146 60.1283 27.2013 52.4673 31.7516 50.9007L54.1943 43.174Z" fill="#575756"/>
<path d="M53.7749 44.8594C58.2525 43.3178 64.101 48.5128 66.838 56.4626L91.9542 129.415C94.6912 137.364 93.2758 145.06 88.8027 146.6L67.2337 154.026C62.7561 155.568 56.9077 150.373 54.1707 142.423L29.0545 69.4709C26.3175 61.5211 27.7329 53.8253 32.206 52.2853L53.7749 44.8594Z" fill="#50504F"/>
<path d="M53.3554 46.5436C57.7618 45.0266 63.57 50.2964 66.3294 58.3113L90.6881 129.063C93.448 137.079 92.1145 144.806 87.708 146.323L67.0098 153.45C62.6048 154.966 56.7957 149.698 54.0357 141.682L29.677 70.9302C26.9176 62.9153 28.2522 55.1863 32.6571 53.6697L53.3554 46.5436Z" fill="#494847"/>
<path d="M52.9358 48.2275C57.2696 46.7354 63.0384 52.0781 65.8213 60.1611L89.422 128.711C92.2049 136.794 90.9476 144.556 86.6138 146.048L66.7923 152.872C62.4586 154.364 56.6912 149.021 53.9083 140.938L30.3076 72.3879C27.5248 64.3049 28.7805 56.5438 33.1143 55.0517L52.9358 48.2275Z" fill="#414140"/>
<path d="M52.5172 49.9133C56.7798 48.4457 62.5139 53.8596 65.3192 62.0078L88.1624 128.358C90.9682 136.507 89.7882 144.302 85.5196 145.771L66.5718 152.295C62.3107 153.762 56.5826 148.346 53.7768 140.196L30.9326 73.8432C28.1273 65.695 29.3072 57.9007 33.5683 56.4337L52.5172 49.9133Z" fill="#3A3A39"/>
<path d="M52.0993 51.5966C56.2877 50.1546 61.978 55.648 64.8052 63.8597L86.8909 128.009C89.7186 136.223 88.615 144.052 84.4266 145.494L66.351 151.717C62.1626 153.159 56.4723 147.665 53.6456 139.455L31.5599 75.3056C28.7316 67.0908 29.8353 59.2618 34.0237 57.8198L52.0993 51.5966Z" fill="#333331"/>
<path d="M51.6794 53.2806C55.7967 51.8631 61.4451 57.4268 64.2952 65.7052L85.6245 127.658C88.4751 135.937 87.4544 143.796 83.3311 145.215L66.1307 151.137C62.0135 152.554 56.3635 146.991 53.5134 138.713L32.1851 76.7635C29.334 68.4821 30.3553 60.6256 34.4801 59.2055L51.6794 53.2806Z" fill="#2B2B2A"/>
<path d="M51.2607 54.9662C55.3052 53.5737 60.9144 59.2102 63.788 67.5567L84.3587 127.306C87.2323 135.652 86.2823 143.549 82.2377 144.941L65.9111 150.562C61.865 151.955 56.2568 146.317 53.3833 137.97L32.8125 78.2211C29.9389 69.8746 30.888 61.9802 34.934 60.5872L51.2607 54.9662Z" fill="#242423"/>
<path d="M50.8429 56.6563C54.8162 55.2883 60.3815 60.9941 63.2801 69.4133L83.0908 126.955C85.9873 135.368 85.1161 143.296 81.1427 144.664L65.6898 149.985C61.7164 151.353 56.1496 145.647 53.251 137.228L33.4404 79.6867C30.5418 71.2675 31.4151 63.345 35.39 61.9765L50.8429 56.6563Z" fill="black"/>
</g>
<path d="M5.29866 41.8002L31.5368 118.011C31.7019 118.491 32.0125 118.908 32.4254 119.204C32.8384 119.5 33.3332 119.66 33.8412 119.661C34.8805 119.663 35.8934 119.989 36.739 120.594C37.5846 121.198 38.2208 122.051 38.5591 123.034C38.8974 124.016 38.9211 125.08 38.6268 126.077C38.3325 127.074 37.7349 127.954 36.917 128.596C36.5195 128.909 36.2288 129.338 36.085 129.823C35.9412 130.308 35.9514 130.827 36.1141 131.306L50.1119 171.963C51.1838 171.594 52.318 171.44 53.4495 171.509C54.5811 171.579 55.688 171.87 56.7069 172.367C57.7258 172.864 58.6368 173.557 59.3878 174.407C60.1389 175.256 60.7153 176.245 61.0842 177.317L111.16 160.076C110.791 159.004 110.637 157.87 110.706 156.739C110.775 155.607 111.066 154.5 111.563 153.481C112.06 152.462 112.753 151.551 113.602 150.8C114.451 150.049 115.44 149.472 116.512 149.103L102.514 108.445C102.349 107.965 102.038 107.548 101.625 107.252C101.212 106.956 100.717 106.796 100.209 106.795C99.1701 106.793 98.1572 106.467 97.3116 105.863C96.4661 105.258 95.8299 104.405 95.4915 103.423C95.1532 102.44 95.1295 101.376 95.4238 100.379C95.7181 99.3824 96.3158 98.5021 97.1336 97.8607C97.5314 97.5475 97.8222 97.1186 97.966 96.6332C98.1098 96.1478 98.0995 95.6297 97.9365 95.1503L71.7 18.9443C70.6282 19.3133 69.4942 19.4676 68.3627 19.3984C67.2313 19.3291 66.1245 19.0377 65.1057 18.5407C64.0869 18.0438 63.1759 17.351 62.4248 16.502C61.6737 15.653 61.0972 14.6643 60.7282 13.5925L10.652 30.833C11.3958 32.9972 11.2497 35.3683 10.2459 37.4249C9.24198 39.4815 7.46252 41.0552 5.29866 41.8002ZM41.0593 122.606C41.0066 122.628 40.9499 122.639 40.8929 122.638C40.8358 122.638 40.7795 122.625 40.7275 122.602C40.6754 122.578 40.6287 122.544 40.5903 122.502C40.5518 122.46 40.5224 122.41 40.5038 122.357C40.4852 122.303 40.4779 122.245 40.4822 122.188C40.4866 122.132 40.5026 122.076 40.5292 122.026C40.5558 121.975 40.5924 121.931 40.6369 121.895C40.6813 121.859 40.7326 121.833 40.7876 121.818L45.3622 120.243C45.4149 120.221 45.4715 120.21 45.5286 120.211C45.5857 120.212 45.6419 120.224 45.694 120.248C45.746 120.271 45.7927 120.305 45.8312 120.347C45.8697 120.389 45.8991 120.439 45.9177 120.493C45.9362 120.547 45.9436 120.604 45.9392 120.661C45.9348 120.718 45.9189 120.773 45.8923 120.823C45.8657 120.874 45.829 120.918 45.7846 120.954C45.7401 120.99 45.6888 121.016 45.6338 121.032L41.0593 122.606ZM48.894 119.909C48.8413 119.931 48.7846 119.942 48.7276 119.941C48.6705 119.94 48.6142 119.928 48.5622 119.904C48.5101 119.881 48.4634 119.847 48.425 119.805C48.3865 119.763 48.3571 119.713 48.3385 119.659C48.3199 119.605 48.3126 119.548 48.317 119.491C48.3213 119.434 48.3373 119.379 48.3639 119.328C48.3905 119.278 48.4271 119.233 48.4716 119.197C48.516 119.162 48.5674 119.135 48.6224 119.12L53.1969 117.545C53.2748 117.518 53.3589 117.515 53.4387 117.536C53.5184 117.557 53.5901 117.601 53.6447 117.663C53.6994 117.725 53.7344 117.801 53.7455 117.883C53.7566 117.964 53.7432 118.048 53.707 118.122C53.6835 118.171 53.6503 118.216 53.6093 118.252C53.5683 118.289 53.5205 118.317 53.4685 118.334L48.894 119.909ZM56.7287 117.212C56.676 117.234 56.6194 117.244 56.5623 117.244C56.5052 117.243 56.4489 117.23 56.3969 117.207C56.3449 117.183 56.2982 117.15 56.2597 117.107C56.2212 117.065 56.1918 117.016 56.1732 116.962C56.1546 116.908 56.1473 116.851 56.1517 116.794C56.156 116.737 56.172 116.681 56.1986 116.631C56.2252 116.58 56.2619 116.536 56.3063 116.5C56.3508 116.464 56.4021 116.438 56.4571 116.423L61.0316 114.848C61.1095 114.821 61.1937 114.818 61.2734 114.839C61.3531 114.86 61.4248 114.904 61.4794 114.965C61.5341 115.027 61.5691 115.104 61.5802 115.185C61.5913 115.267 61.5779 115.35 61.5417 115.424C61.5182 115.474 61.485 115.518 61.444 115.555C61.4031 115.591 61.3552 115.619 61.3032 115.637L56.7287 117.212ZM64.5634 114.514C64.4586 114.55 64.3437 114.543 64.2441 114.495C64.1445 114.446 64.0682 114.36 64.0321 114.255C64.0141 114.203 64.0066 114.149 64.0101 114.094C64.0137 114.039 64.0282 113.986 64.0528 113.936C64.0767 113.887 64.1102 113.843 64.1512 113.807C64.1922 113.771 64.24 113.743 64.2918 113.725L68.8663 112.151C68.9708 112.115 69.085 112.122 69.1841 112.171C69.2833 112.219 69.3593 112.305 69.3956 112.409C69.4307 112.513 69.4234 112.627 69.3752 112.727C69.3271 112.826 69.2419 112.902 69.138 112.939L64.5634 114.514ZM72.3981 111.817C72.3454 111.839 72.2888 111.85 72.2317 111.849C72.1747 111.848 72.1184 111.836 72.0663 111.812C72.0143 111.789 71.9676 111.755 71.9291 111.713C71.8907 111.671 71.8612 111.621 71.8426 111.567C71.8241 111.513 71.8167 111.456 71.8211 111.399C71.8255 111.342 71.8414 111.287 71.868 111.236C71.8946 111.186 71.9313 111.141 71.9757 111.105C72.0202 111.07 72.0715 111.043 72.1265 111.028L76.7011 109.453C76.779 109.426 76.8631 109.423 76.9428 109.444C77.0225 109.465 77.0943 109.509 77.1489 109.571C77.2035 109.632 77.2386 109.709 77.2497 109.791C77.2608 109.872 77.2473 109.955 77.2111 110.03C77.1876 110.079 77.1544 110.123 77.1135 110.16C77.0725 110.196 77.0246 110.224 76.9727 110.242L72.3981 111.817ZM92.369 104.059C92.4735 104.023 92.5881 104.03 92.6876 104.078C92.7871 104.126 92.8633 104.212 92.8997 104.317C92.935 104.421 92.9275 104.536 92.879 104.635C92.8305 104.735 92.7449 104.811 92.6406 104.848L88.0661 106.423C88.0133 106.445 87.9567 106.456 87.8996 106.455C87.8426 106.454 87.7863 106.441 87.7343 106.418C87.6822 106.394 87.6355 106.361 87.597 106.318C87.5586 106.276 87.5292 106.227 87.5106 106.173C87.492 106.119 87.4847 106.062 87.489 106.005C87.4934 105.948 87.5094 105.892 87.536 105.842C87.5626 105.791 87.5992 105.747 87.6437 105.711C87.6881 105.675 87.7394 105.649 87.7944 105.634L92.369 104.059ZM84.5358 106.756C84.6137 106.729 84.6978 106.726 84.7775 106.747C84.8573 106.768 84.929 106.812 84.9836 106.873C85.0382 106.935 85.0733 107.012 85.0844 107.093C85.0955 107.175 85.0821 107.258 85.0459 107.332L85.0379 107.348C84.9883 107.44 84.9061 107.51 84.8074 107.545L80.2328 109.12C80.1548 109.146 80.0705 109.15 79.9907 109.129C79.9108 109.108 79.839 109.063 79.7842 109.002C79.7295 108.94 79.6942 108.863 79.6829 108.782C79.6716 108.7 79.6847 108.617 79.7207 108.542C79.7657 108.45 79.8436 108.378 79.939 108.34C79.9463 108.337 79.9539 108.334 79.9618 108.332L84.5358 106.756Z" fill="url(#paint0_linear_177_4459)"/>
<path d="M63.3401 168.864L59.0391 156.371L71.5316 152.07L75.8326 164.563L63.3401 168.864ZM62.5545 158.086L65.0569 165.355L72.3253 162.852L69.8229 155.584L62.5545 158.086Z" fill="black"/>
<path d="M65.3339 159.443L66.4094 162.567L69.5333 161.491L68.4578 158.367L65.3339 159.443Z" fill="black"/>
<path d="M91.5217 158.994L87.2207 146.501L99.7208 142.198L104.022 154.69L91.5217 158.994ZM90.7362 148.216L93.2386 155.484L100.507 152.982L98.0046 145.714L90.7362 148.216Z" fill="black"/>
<path d="M93.519 149.573L94.5945 152.697L97.7184 151.622L96.6429 148.498L93.519 149.573Z" fill="black"/>
<path d="M53.5354 140.385L49.2344 127.893L61.727 123.592L66.0279 136.085L53.5354 140.385ZM52.7499 129.608L55.2523 136.876L62.5206 134.374L60.0182 127.105L52.7499 129.608Z" fill="black"/>
<path d="M55.529 130.965L56.6045 134.089L59.7284 133.013L58.6529 129.889L55.529 130.965Z" fill="black"/>
<path d="M75.9255 161.32L76.8623 164.041L79.5773 163.106L78.6405 160.385L75.9255 161.32Z" fill="black"/>
<path d="M78.6403 160.385L79.5771 163.106L82.2922 162.171L81.3554 159.45L78.6403 160.385Z" fill="black"/>
<path d="M81.3556 159.45L82.2925 162.171L85.0075 161.237L84.0707 158.516L81.3556 159.45Z" fill="black"/>
<path d="M74.0519 155.878L74.9888 158.599L77.7038 157.664L76.767 154.943L74.0519 155.878Z" fill="black"/>
<path d="M76.7668 154.943L77.7036 157.664L80.4187 156.729L79.4818 154.008L76.7668 154.943Z" fill="black"/>
<path d="M79.4816 154.008L80.4185 156.729L83.1335 155.794L82.1967 153.073L79.4816 154.008Z" fill="black"/>
<path d="M81.2599 150.352L82.1968 153.073L84.9118 152.139L83.975 149.418L81.2599 150.352Z" fill="black"/>
<path d="M72.1777 150.434L73.1145 153.155L75.8295 152.22L74.8927 149.499L72.1777 150.434Z" fill="black"/>
<path d="M77.6078 148.564L78.5447 151.286L81.2597 150.351L80.3229 147.63L77.6078 148.564Z" fill="black"/>
<path d="M57.664 152.387L58.6008 155.108L61.3159 154.173L60.379 151.452L57.664 152.387Z" fill="black"/>
<path d="M63.0942 150.518L64.031 153.239L66.7461 152.304L65.8092 149.583L63.0942 150.518Z" fill="black"/>
<path d="M65.809 149.583L66.7458 152.304L69.4609 151.369L68.5241 148.648L65.809 149.583Z" fill="black"/>
<path d="M68.5241 148.648L69.4609 151.369L72.176 150.434L71.2391 147.713L68.5241 148.648Z" fill="black"/>
<path d="M79.3857 144.909L80.3225 147.63L83.0376 146.695L82.1007 143.974L79.3857 144.909Z" fill="black"/>
<path d="M59.4418 148.731L60.3787 151.452L63.0937 150.518L62.1569 147.797L59.4418 148.731Z" fill="black"/>
<path d="M64.8725 146.862L65.8093 149.583L68.5244 148.648L67.5875 145.927L64.8725 146.862Z" fill="black"/>
<path d="M70.3039 144.992L71.2407 147.713L73.9558 146.778L73.0189 144.057L70.3039 144.992Z" fill="black"/>
<path d="M73.0192 144.057L73.9561 146.778L76.6711 145.843L75.7343 143.122L73.0192 144.057Z" fill="black"/>
<path d="M75.7341 143.122L76.6709 145.843L79.3859 144.909L78.4491 142.187L75.7341 143.122Z" fill="black"/>
<path d="M61.2206 145.075L62.1575 147.796L64.8725 146.862L63.9357 144.141L61.2206 145.075Z" fill="black"/>
<path d="M69.3664 142.269L72.0814 141.334L73.0188 144.057L70.3037 144.992" fill="black"/>
<path d="M74.7971 140.401L75.7339 143.122L78.4489 142.187L77.5121 139.466L74.7971 140.401Z" fill="black"/>
<path d="M77.5119 139.466L78.4487 142.187L81.1638 141.253L80.2269 138.532L77.5119 139.466Z" fill="black"/>
<path d="M54.8527 144.222L55.7896 146.943L58.5046 146.009L57.5678 143.288L54.8527 144.222Z" fill="black"/>
<path d="M60.2829 142.353L61.2197 145.074L63.9348 144.139L62.9979 141.418L60.2829 142.353Z" fill="black"/>
<path d="M65.7131 140.483L66.6499 143.204L69.3649 142.27L68.4281 139.548L65.7131 140.483Z" fill="black"/>
<path d="M73.8596 137.678L74.7964 140.4L77.5114 139.465L76.5746 136.744L73.8596 137.678Z" fill="black"/>
<path d="M53.9162 141.501L54.853 144.222L57.5681 143.287L56.6312 140.566L53.9162 141.501Z" fill="black"/>
<path d="M59.3459 139.632L60.2827 142.353L62.9978 141.418L62.0609 138.697L59.3459 139.632Z" fill="black"/>
<path d="M62.0612 138.697L62.998 141.418L65.7131 140.483L64.7763 137.762L62.0612 138.697Z" fill="black"/>
<path d="M64.7765 137.762L65.7134 140.483L68.4284 139.548L67.4916 136.827L64.7765 137.762Z" fill="black"/>
<path d="M67.4931 136.827L68.4299 139.548L71.145 138.613L70.2081 135.892L67.4931 136.827Z" fill="black"/>
<path d="M70.2079 135.892L71.1448 138.613L73.8598 137.678L72.923 134.957L70.2079 135.892Z" fill="black"/>
<path d="M72.9228 134.957L73.8596 137.678L76.5747 136.744L75.6378 134.023L72.9228 134.957Z" fill="black"/>
<path d="M75.6381 134.023L76.575 136.744L79.29 135.809L78.3532 133.088L75.6381 134.023Z" fill="black"/>
<path d="M66.5561 134.106L67.4929 136.827L70.208 135.892L69.2711 133.171L66.5561 134.106Z" fill="black"/>
<path d="M74.7011 131.301L75.6379 134.023L78.353 133.088L77.4161 130.367L74.7011 131.301Z" fill="black"/>
<path d="M71.9858 132.236L72.9226 134.957L75.6377 134.023L74.7008 131.301L71.9858 132.236Z" fill="black"/>
<path d="M68.3342 130.45L69.271 133.171L71.986 132.236L71.0492 129.515L68.3342 130.45Z" fill="black"/>
<path d="M66.4601 125.006L67.397 127.727L70.112 126.793L69.1752 124.071L66.4601 125.006Z" fill="black"/>
<path d="M71.8898 123.137L72.8267 125.858L75.5417 124.923L74.6049 122.202L71.8898 123.137Z" fill="black"/>
<path d="M62.808 123.22L63.7449 125.941L66.4599 125.006L65.5231 122.285L62.808 123.22Z" fill="black"/>
<path d="M68.2385 121.35L69.1753 124.071L71.8903 123.137L70.9535 120.416L68.2385 121.35Z" fill="black"/>
<path d="M86.7856 157.581L87.7224 160.302L90.4375 159.367L89.5006 156.646L86.7856 157.581Z" fill="black"/>
<path d="M84.9118 152.139L85.8486 154.86L88.5637 153.925L87.6268 151.204L84.9118 152.139Z" fill="black"/>
<path d="M83.9748 149.418L84.9116 152.139L87.6267 151.204L86.6898 148.483L83.9748 149.418Z" fill="black"/>
<path d="M83.038 146.695L83.9749 149.416L86.6899 148.481L85.7531 145.76L83.038 146.695Z" fill="black"/>
<path d="M84.8159 143.039L85.7527 145.76L88.4677 144.825L87.5309 142.104L84.8159 143.039Z" fill="black"/>
<path d="M90.2477 141.169L91.1846 143.89L93.8996 142.955L92.9628 140.234L90.2477 141.169Z" fill="black"/>
<path d="M92.9626 140.234L93.8994 142.955L96.6145 142.021L95.6776 139.3L92.9626 140.234Z" fill="black"/>
<path d="M95.6777 139.3L96.6145 142.021L99.3296 141.086L98.3927 138.365L95.6777 139.3Z" fill="black"/>
<path d="M81.164 141.253L82.1008 143.974L84.8159 143.039L83.879 140.318L81.164 141.253Z" fill="black"/>
<path d="M94.7409 136.578L95.6777 139.3L98.3928 138.365L97.4559 135.644L94.7409 136.578Z" fill="black"/>
<path d="M80.2275 138.532L81.1643 141.253L83.8794 140.318L82.9425 137.597L80.2275 138.532Z" fill="black"/>
<path d="M85.6591 136.661L86.5959 139.383L89.311 138.448L88.3742 135.727L85.6591 136.661Z" fill="black"/>
<path d="M88.3737 135.727L89.3105 138.448L92.0256 137.513L91.0888 134.792L88.3737 135.727Z" fill="black"/>
<path d="M91.089 134.792L92.0259 137.513L94.7409 136.578L93.8041 133.857L91.089 134.792Z" fill="black"/>
<path d="M84.7216 133.939L85.6584 136.66L88.3735 135.725L87.4367 133.004L84.7216 133.939Z" fill="black"/>
<path d="M78.3527 133.088L79.2896 135.809L82.0046 134.874L81.0678 132.153L78.3527 133.088Z" fill="black"/>
<path d="M83.7846 131.218L84.7214 133.939L87.4365 133.004L86.4996 130.283L83.7846 131.218Z" fill="black"/>
<path d="M86.4999 130.283L87.4368 133.004L90.1518 132.069L89.215 129.348L86.4999 130.283Z" fill="black"/>
<path d="M89.2148 129.348L90.1516 132.069L92.8667 131.135L91.9298 128.414L89.2148 129.348Z" fill="black"/>
<path d="M80.1313 129.432L81.0681 132.153L83.7832 131.218L82.8463 128.497L80.1313 129.432Z" fill="black"/>
<path d="M82.8478 128.497L83.7847 131.218L86.4997 130.283L85.5629 127.562L82.8478 128.497Z" fill="black"/>
<path d="M88.2778 126.627L89.2146 129.348L91.9296 128.414L90.9928 125.692L88.2778 126.627Z" fill="black"/>
<path d="M79.1943 126.711L80.1311 129.432L82.8461 128.497L81.9093 125.776L79.1943 126.711Z" fill="black"/>
<path d="M84.6262 124.841L85.563 127.562L88.278 126.627L87.3412 123.906L84.6262 124.841Z" fill="black"/>
<path d="M90.0558 122.971L90.9927 125.692L93.7077 124.758L92.7709 122.037L90.0558 122.971Z" fill="black"/>
<path d="M75.5424 124.925L76.4792 127.646L79.1943 126.711L78.2575 123.99L75.5424 124.925Z" fill="black"/>
<path d="M80.9743 123.055L81.9111 125.776L84.6262 124.841L83.6893 122.12L80.9743 123.055Z" fill="black"/>
<path d="M83.6891 122.12L84.626 124.841L87.341 123.906L86.4042 121.185L83.6891 122.12Z" fill="black"/>
<path d="M86.4045 121.185L87.3413 123.906L90.0564 122.972L89.1195 120.25L86.4045 121.185Z" fill="black"/>
<path d="M74.6052 122.202L75.542 124.923L78.257 123.988L77.3202 121.267L74.6052 122.202Z" fill="black"/>
<path d="M82.7519 119.397L83.6887 122.118L86.4038 121.184L85.4669 118.462L82.7519 119.397Z" fill="black"/>
<path d="M88.1818 117.528L89.1187 120.249L91.8337 119.314L90.8969 116.593L88.1818 117.528Z" fill="black"/>
<path d="M73.6686 119.481L74.6055 122.202L77.3205 121.267L76.3837 118.546L73.6686 119.481Z" fill="black"/>
<path d="M76.3835 118.546L77.3203 121.267L80.0354 120.332L79.0985 117.611L76.3835 118.546Z" fill="black"/>
<path d="M79.1 117.611L80.0369 120.332L82.7519 119.397L81.8151 116.676L79.1 117.611Z" fill="black"/>
<defs>
<linearGradient id="paint0_linear_177_4459" x1="13.3496" y1="27.909" x2="179.258" y2="263.548" gradientUnits="userSpaceOnUse">
<stop stop-color="white"/>
<stop offset="1" stop-color="#CECECE"/>
</linearGradient>
</defs>
</svg>
